<svg xmlns="http://www.w3.org/2000/svg" viewBox="0 0 32.59 23.96"><defs><style>.cls-1{fill:#fff;}</style></defs><title>Appareil photo</title><g id="Calque_2" data-name="Calque 2"><g id="Layer_1" data-name="Layer 1"><path class="cls-1" d="M29.18,24H3.41A3.49,3.49,0,0,1,0,20.4V8A3.49,3.49,0,0,1,3.41,4.42H8.12a.67.67,0,0,0,.64-.65l.08-1.18A2.53,2.53,0,0,1,11.26,0H21.52a2.53,2.53,0,0,1,2.42,2.62v.61a1.2,1.2,0,0,0,1.14,1.19h4.09A3.49,3.49,0,0,1,32.59,8V20.4A3.49,3.49,0,0,1,29.18,24ZM3.41,5.42A2.49,2.49,0,0,0,1,8V20.4A2.49,2.49,0,0,0,3.41,23H29.18a2.49,2.49,0,0,0,2.41-2.56V8a2.49,2.49,0,0,0-2.41-2.56H25.09A2.17,2.17,0,0,1,23,3.25V2.62A1.54,1.54,0,0,0,21.52,1H11.26A1.54,1.54,0,0,0,9.84,2.62L9.76,3.84A1.67,1.67,0,0,1,8.12,5.42Z"/><path class="cls-1" d="M16.3,19a6,6,0,1,1,6-6A6,6,0,0,1,16.3,19Zm0-11a5,5,0,1,0,5,5A5,5,0,0,0,16.3,8Z"/></g></g></svg>