<svg xmlns="http://www.w3.org/2000/svg" viewBox="0 0 28.6 25.23"><defs><style>.cls-1{fill:#fff;}</style></defs><title>maps white</title><g id="Calque_2" data-name="Calque 2"><g id="Layer_1" data-name="Layer 1"><path class="cls-1" d="M28.38.09a.47.47,0,0,0-.47,0L18.7,3.77,10.05.19a.48.48,0,0,0-.37,0L.32,3.82A.49.49,0,0,0,0,4.28V24.73a.52.52,0,0,0,.21.41.52.52,0,0,0,.29.09.47.47,0,0,0,.17,0l9.19-3.41,8.75,3.4a.47.47,0,0,0,.35,0l9.31-3.44a.51.51,0,0,0,.33-.47V.5A.48.48,0,0,0,28.38.09Zm-19,20.82L1,24V4.62L9.36,1.39Zm1-19.51L18.2,4.65V24l-7.84-3.05ZM27.6,20.94,19.2,24V4.65l8.4-3.41Z"/></g></g></svg>