<svg xmlns="http://www.w3.org/2000/svg" viewBox="0 0 26.08 26.04"><defs><style>.cls-1{fill:#fff;}</style></defs><title>galerie white</title><g id="Calque_2" data-name="Calque 2"><g id="Layer_1" data-name="Layer 1"><path class="cls-1" d="M15.37,8.93a3,3,0,1,0,3,3A3,3,0,0,0,15.37,8.93Zm0,5a2,2,0,1,1,2-2A2.05,2.05,0,0,1,15.37,13.93Z"/><path class="cls-1" d="M23.82,0H5.87A2.26,2.26,0,0,0,3.61,2.26V3.57H2.26A2.26,2.26,0,0,0,0,5.83v18A2.26,2.26,0,0,0,2.26,26h18a2.26,2.26,0,0,0,2.26-2.26V22.47h1.35a2.26,2.26,0,0,0,2.26-2.26v-18A2.26,2.26,0,0,0,23.82,0ZM21.59,23.78a1.38,1.38,0,0,1-1.38,1.38h-18A1.38,1.38,0,0,1,.88,23.78V20l5.24-4.52a.18.18,0,0,1,.22,0l9.58,6.47a.47.47,0,0,0,.25.07.47.47,0,0,0,.37-.19.46.46,0,0,0-.12-.62l-2.09-1.41,3.53-2.69a.18.18,0,0,1,.21,0l3.52,2.38Zm0-5.4-3-2a1.07,1.07,0,0,0-1.25,0l-3.76,2.87L6.84,14.71a1.07,1.07,0,0,0-1.29.07l-4.67,4v-13A1.37,1.37,0,0,1,2.26,4.46h18a1.37,1.37,0,0,1,1.38,1.37Zm3.6,1.83a1.37,1.37,0,0,1-1.37,1.38H22.47V5.83a2.26,2.26,0,0,0-2.26-2.26H4.49V2.26A1.38,1.38,0,0,1,5.87.88h18a1.37,1.37,0,0,1,1.37,1.38Z"/></g></g></svg>