<?xml version="1.0" encoding="UTF-8"?>
<svg width="153px" height="163px" viewBox="0 0 153 163" version="1.1" xmlns="http://www.w3.org/2000/svg" xmlns:xlink="http://www.w3.org/1999/xlink">
    <!-- Generator: Sketch 48.2 (47327) - http://www.bohemiancoding.com/sketch -->
    <title>noun_1043405_cc</title>
    <desc>Created with Sketch.</desc>
    <defs></defs>
    <g id="iPhone-8-Copy-19" stroke="none" stroke-width="1" fill="none" fill-rule="evenodd" transform="translate(-111.000000, -199.000000)">
        <g id="noun_1043405_cc" transform="translate(111.000000, 199.000000)" fill="#000000" fill-rule="nonzero">
            <path d="M51.0009143,23.3708325 C35.24192,16.8096943 17.1767314,24.3357057 10.4503314,40.1596272 C7.18322286,47.8786133 7.18322286,56.1765233 10.4503314,63.8955094 C13.5252571,71.6144955 19.4829257,77.5967097 27.17024,80.6843042 C31.0138972,82.2281014 35.0497372,83 39.0855772,83 C43.1214172,83 47.1572572,82.2281014 50.8087315,80.6843042 C58.4960458,77.5967097 64.4537144,71.6144955 67.5286401,63.8955094 C74.2550401,48.2645626 66.7599086,29.9319706 51.0009143,23.3708325 Z M64.0693486,62.5446869 C61.1866058,69.2987997 55.9976686,74.5091153 49.2712686,77.2107604 C42.5448686,79.9124056 35.24192,79.9124056 28.51552,77.2107604 C21.78912,74.3161406 16.6001829,69.105825 13.9096229,62.3517122 C11.2190629,55.5975994 11.2190629,48.2645626 13.9096229,41.5104498 C19.6751086,27.6162748 35.6262857,21.0551366 49.2712686,26.8443762 C63.3006172,32.6336158 69.8348344,48.6505119 64.0693486,62.5446869 Z" id="Shape"></path>
            <path d="M44.3220153,36.8251993 C44.5512769,37 45.0098,37 45.2390615,37 C46.1561077,37 47.0731539,36.6503986 47.3024154,35.9511958 L49.8242924,31.4063776 C50.2828155,30.5323741 49.8242924,29.4835699 48.6779847,29.1339685 C47.5316769,28.784367 46.1561077,29.1339685 45.6975846,30.007972 L43.1757076,34.5527902 C42.7171845,35.4267937 43.1757076,36.4755979 44.3220153,36.8251993 Z" id="Shape"></path>
            <path d="M32.5990348,67.1339685 C31.468666,66.784367 30.1122234,67.1339685 29.6600759,68.007972 L27.1732645,72.5527902 C26.7211169,73.4267937 27.1732645,74.4755979 28.3036333,74.8251993 C28.5297071,75 28.9818546,75 29.2079283,75 C30.1122234,75 31.0165185,74.6503986 31.2425922,73.9511958 L33.7294036,69.4063776 C34.4076249,68.5323741 33.7294036,67.4835699 32.5990348,67.1339685 Z" id="Shape"></path>
            <path d="M53.1346557,58.3904752 C52.7832608,59.5123802 53.1346557,60.8586661 54.0131431,61.3074281 L58.5812772,63.775619 C58.7569747,64 59.1083696,64 59.2840671,64 C59.9868569,64 60.6896468,63.551238 60.8653443,62.653714 C61.2167392,61.5318091 60.8653443,60.1855231 59.9868569,59.7367612 L55.4187228,57.2685702 C54.5402355,56.5954273 53.4860507,57.2685702 53.1346557,58.3904752 Z" id="Shape"></path>
            <path d="M21.5812772,47.7724791 C21.7569747,48 22.1083696,48 22.2840671,48 C22.9868569,48 23.6896468,47.5449582 23.8653443,46.6348747 C24.2167392,45.4972703 23.8653443,44.132145 22.9868569,43.6771033 L18.4187228,41.1743736 C17.5402355,40.7193318 16.4860507,41.1743736 16.1346557,42.311978 C15.7832608,43.4495824 16.1346557,44.8147077 17.0131431,45.2697494 L21.5812772,47.7724791 Z" id="Shape"></path>
            <path d="M50.4607651,40.2054507 C49.888411,41.1698113 50.2699804,42.327044 51.2239039,42.9056604 L53.8948897,44.4486373 L41.3030996,49.2704403 C40.9215302,49.0775681 40.7307455,48.6918239 40.3491761,48.4989518 C39.3952526,48.1132075 38.4413291,48.1132075 37.4874056,48.4989518 C36.5334821,48.884696 35.7703433,49.6561845 35.3887739,50.427673 C35.1979892,50.8134172 35.1979892,51.1991614 35.1979892,51.3920335 L17.2642276,58.3354298 C16.3103041,58.721174 15.73795,59.8784067 16.1195194,60.8427673 C16.5010888,61.6142558 17.0734429,62 17.8365817,62 C18.0273664,62 18.2181511,62 18.5997205,61.8071279 L36.7242668,54.8637317 C36.9150515,55.0566038 37.1058362,55.0566038 37.2966209,55.2494759 C37.6781903,55.442348 38.2505444,55.442348 38.6321138,55.442348 C40.1583914,55.442348 41.4938843,54.6708595 42.0662384,53.1278826 C42.0662384,52.9350105 42.2570231,52.7421384 42.2570231,52.5492662 L54.4672438,47.9203354 L53.3225356,50.427673 C52.9409662,51.3920335 53.3225356,52.5492662 54.2764591,52.9350105 C54.4672438,53.1278826 54.8488131,53.1278826 55.0395978,53.1278826 C55.8027366,53.1278826 56.3750907,52.7421384 56.7566601,51.9706499 L59.6184306,45.60587 C59.8092153,45.2201258 60,45.0272537 60,44.4486373 C60,43.6771488 59.6184306,42.9056604 59.0460765,42.7127883 L52.7501815,39.048218 C52.1778274,38.8553459 51.0331192,39.2410901 50.4607651,40.2054507 Z" id="Shape"></path>
            <path d="M151.734032,28.0238868 L82.957009,0.144205249 C82.5749145,-0.0480684164 82.0017726,-0.0480684164 81.4286307,0.144205249 C81.0465362,0.336478915 80.6644416,0.721026246 80.4733943,1.10557358 L68.6284625,30.7157181 C64.6164695,24.7552344 58.8850509,20.1406665 52.1983958,17.4488352 C42.8370788,13.6033618 32.7115725,13.6033618 23.3502555,17.4488352 C13.9889384,21.2943085 6.72914151,28.6007078 2.90819577,37.8298437 C-5.11579029,57.0572103 4.05447949,79.3609555 23.1592082,87.4364494 C27.9353904,89.3591861 32.7115725,90.3205544 37.678802,90.3205544 C40.1624167,90.3205544 42.6460315,90.1282807 45.1296462,89.5514597 L28.1264377,132.236214 C27.9353904,132.620761 27.9353904,133.197582 28.1264377,133.774403 C28.3174849,134.351224 28.6995795,134.543497 29.0816741,134.735771 L98.0497447,162.807726 C98.240792,162.807726 98.4318393,163 98.8139339,163 C99.578123,163 100.342312,162.615453 100.533359,161.846358 L152.880316,30.7157181 C153.262411,29.5620761 152.689269,28.4084341 151.734032,28.0238868 Z M24.6875865,83.9755234 C7.49333066,76.6691242 -0.721702688,56.6726629 6.53809422,39.368033 C9.97694539,30.9079917 16.4725531,24.3706871 24.8786338,20.9097611 C33.2847144,17.4488352 42.4549842,17.4488352 50.8610648,20.9097611 C59.2671454,24.3706871 65.7627532,30.9079917 69.2016044,39.368033 C72.6404555,47.8280743 72.6404555,57.0572103 69.2016044,65.5172515 C61.7507602,83.0141551 41.8818423,91.2819227 24.6875865,83.9755234 Z M97.6676501,158.385432 L32.329478,132.04394 L40.5445113,111.470658 C40.7355586,111.662931 40.9266059,111.662931 40.9266059,111.855205 C41.3087005,112.047479 41.4997477,112.239752 41.8818423,112.239752 C42.4549842,112.239752 43.2191733,111.855205 43.4102206,111.278384 C43.9833625,110.317016 43.7923152,109.163374 42.8370788,108.586553 C42.4549842,108.394279 42.0728896,108.009732 41.8818423,107.817458 L49.5237338,88.5900914 C49.5237338,88.5900914 49.5237338,88.3978178 49.5237338,88.3978178 C59.4581927,84.9368918 68.0553206,77.6304925 72.258361,67.0554409 C72.258361,66.8631672 72.4494082,66.6708935 72.4494082,66.6708935 C77.2255904,68.7859039 92.7004207,76.8613978 92.3183261,95.127396 C91.7451842,115.700678 103.972211,129.544382 107.602109,133.197582 L97.6676501,158.385432 Z M128.999405,79.9377765 C128.617311,79.7455028 128.235216,79.7455028 127.662074,79.5532291 C126.706838,79.3609555 125.560554,79.9377765 125.369507,81.0914185 C125.178459,82.0527868 125.751601,83.2064288 126.897885,83.3987024 C127.088932,83.3987024 127.27998,83.3987024 127.471027,83.5909761 L109.321535,129.159835 C105.691636,125.122088 98.240792,115.508405 96.5213664,101.856974 L100.151265,98.2037747 C100.915454,97.43468 100.915454,96.281038 100.151265,95.5119434 C99.3870757,94.7428487 98.240792,94.7428487 97.4766029,95.5119434 L96.3303191,96.6655854 C96.3303191,96.0887644 96.3303191,95.704217 96.3303191,95.127396 C96.903461,74.3618402 79.1360633,65.3249779 73.9777865,63.0176939 C76.270354,54.7499263 75.8882594,46.0976113 72.6404555,38.0221174 C72.258361,36.8684754 71.6852191,35.907107 71.1120772,34.9457387 L83.1480563,4.37422589 L148.486228,30.9079917 L128.999405,79.9377765 Z" id="Shape"></path>
            <path d="M120.1783,80.0425304 C118.092163,80.4913994 116.21464,81.3891374 114.128504,82.7357445 C113.085436,83.409048 112.668208,84.755655 113.294049,85.8778275 C113.711277,86.551131 114.337118,87 115.171572,87 C115.588799,87 115.797413,87 116.21464,86.7755655 C118.092163,85.653393 119.761073,84.9800895 121.429982,84.5312205 C122.47305,84.306786 123.307505,82.960179 122.890277,81.8380064 C122.47305,80.4913994 121.221368,79.8180959 120.1783,80.0425304 Z" id="Shape"></path>
            <path d="M67.7379875,114.142857 C67.1295459,114.142857 66.3182903,114.142857 65.7098486,114.142857 C64.6957792,114.142857 63.4788958,114.142857 62.2620125,114 C61.247943,114 60.2338736,114.428571 60.0310597,115.285714 C59.8282458,116.142857 60.6395013,116.714286 61.8563847,116.857143 C63.073268,117 64.4929653,117 65.7098486,117 C66.5211042,117 67.3323597,117 68.1436153,117 C69.3604987,117 70.1717542,116.285714 69.9689403,115.428571 C69.7661264,114.571429 68.752057,114.142857 67.7379875,114.142857 Z" id="Shape"></path>
            <path d="M79.7920853,111.297979 C79.1675537,111.730368 78.5430221,111.946562 77.9184905,112.162756 C76.8776046,112.811339 75.6285414,113.243727 74.3794783,113.676116 C73.3385923,114.108504 72.7140608,115.189475 73.1304151,116.48664 C73.3385923,117.351417 74.1713011,118 75.2121871,118 C75.4203642,118 75.6285414,118 75.8367186,118 C77.0857818,117.567612 78.5430221,116.919029 79.7920853,116.48664 C80.4166168,116.054252 81.0411484,115.838058 81.8738572,115.405669 C82.9147431,114.757087 83.3310975,113.459921 82.7065659,112.37895 C82.0820344,111.081785 80.8329712,110.649396 79.7920853,111.297979 Z" id="Shape"></path>
            <path d="M88.8699718,103.392493 C87.3566378,104.677286 86.0324706,105.778537 84.7083033,106.696247 C83.9516363,107.246872 83.7624696,108.531665 84.3299698,109.265833 C84.7083033,109.816458 85.2758036,110 85.8433038,110 C86.2216373,110 86.5999708,109.816458 86.9783043,109.632916 C88.3024715,108.531665 89.8158055,107.430414 91.3291395,106.145621 C92.0858064,105.411453 92.2749732,104.310202 91.5183062,103.576035 C90.950806,102.841867 89.8158055,102.841867 88.8699718,103.392493 Z" id="Shape"></path>
            <path d="M108.992686,86.3353412 C107.65562,87.4461177 106.127546,88.5568942 104.599471,89.8528 C103.835434,90.5933177 103.835434,91.7040941 104.408462,92.4446118 C104.79048,92.8148706 105.363508,93 105.745527,93 C106.127546,93 106.700574,92.8148706 107.082592,92.4446118 C108.610667,91.1487059 109.947732,90.0379294 111.284797,89.1122824 C112.048835,88.5568942 112.239844,87.2609883 111.666816,86.5204707 C111.093788,85.9650824 109.756723,85.779953 108.992686,86.3353412 Z" id="Shape"></path>
            <path d="M55.4685037,113.531876 C53.5518977,112.826383 51.6352917,112.120889 49.931642,111.180232 C48.8668609,110.709903 47.5891235,111.180232 47.1632111,112.356054 C46.7372987,113.531876 47.1632111,114.942862 48.2279922,115.413191 C50.1445982,116.353849 52.2741604,117.294507 54.1907664,118 C54.4037226,118 54.6166788,118 54.829635,118 C55.6814599,118 56.5332848,117.294507 56.9591972,116.353849 C57.1721534,115.178027 56.5332848,113.76704 55.4685037,113.531876 Z" id="Shape"></path>
            <path d="M94,47.5 C94,53.8448276 99.1551724,59 105.5,59 C111.844828,59 117,53.8448276 117,47.5 C117,41.1551724 111.844828,36 105.5,36 C99.1551724,36 94,41.1551724 94,47.5 Z M105.5,39.9655172 C109.663793,39.9655172 113.034483,43.3362069 113.034483,47.5 C113.034483,51.6637931 109.663793,55.0344828 105.5,55.0344828 C101.336207,55.0344828 97.9655172,51.6637931 97.9655172,47.5 C97.9655172,43.3362069 101.336207,39.9655172 105.5,39.9655172 Z" id="Shape"></path>
            <path d="M83,45.5 C83,46.4 83.8,47 85,47 L89,47 C90.2,47 91,46.4 91,45.5 C91,44.6 90.2,44 89,44 L85,44 C83.8,44 83,44.75 83,45.5 Z" id="Shape"></path>
            <path d="M92.8562013,52.9196914 C92.3063789,52.0696271 91.2067341,51.7296013 90.2903633,52.2396399 L86.9914288,53.7697557 C86.0750581,54.2797942 85.7085098,55.2998714 86.2583322,56.1499357 C86.6248805,56.6599743 87.1747029,57 87.9077995,57 C88.2743478,57 88.4576219,57 88.8241702,56.8299871 L92.1231048,55.2998714 C92.8562013,54.7898328 93.2227496,53.7697557 92.8562013,52.9196914 Z" id="Shape"></path>
            <path d="M94.8306773,57.8347685 L92.376494,61.0107968 C91.7071713,61.9449228 91.9302789,63.065874 93.0458167,63.6263496 C93.4920319,63.8131748 93.938247,64 94.3844622,64 C95.0537849,64 95.7231076,63.6263496 96.1693227,63.2526992 L98.623506,60.0766708 C99.2928287,59.1425448 99.0697211,58.0215937 97.9541833,57.4611181 C97.061753,56.7138173 95.5,56.9006425 94.8306773,57.8347685 Z" id="Shape"></path>
            <path d="M104.517368,66.2068652 L104.965673,62.2221211 C105.189825,61.2259351 104.293216,60.2297491 102.948304,60.0305119 C101.827544,59.8312747 100.706784,60.6282235 100.482632,61.8236467 L100.034327,65.8083908 C99.8101754,66.8045768 100.706784,67.8007628 102.051696,68 C102.051696,68 102.275848,68 102.275848,68 C103.396608,68 104.517368,67.2030512 104.517368,66.2068652 Z" id="Shape"></path>
            <path d="M112.425418,60.3724192 C112.06036,59.3368597 110.965184,58.715524 110.052538,59.1297478 C109.139892,59.5439716 108.774833,60.786643 109.139892,61.8222025 L110.417596,65.7573286 C110.782655,66.5857762 111.330243,67 112.06036,67 C112.242889,67 112.425418,67 112.790477,66.7928881 C113.703123,66.3786643 114.250711,65.1359929 113.885652,64.1004334 L112.425418,60.3724192 Z" id="Shape"></path>
            <path d="M116.5,61.5698449 C116.898942,62 117.297885,62 117.896298,62 C118.494711,62 119.093125,61.7849224 119.492067,61.3547673 C120.289952,60.494457 120.090481,59.2039917 119.292596,58.3436814 L116.300529,55.547673 C115.502644,54.6873628 114.305817,54.9024403 113.507933,55.7627506 C112.710048,56.6230609 112.909519,57.9135263 113.707404,58.7738365 L116.5,61.5698449 Z" id="Shape"></path>
            <path d="M123.539154,50.0730174 L119.476508,49.0396009 C118.460846,48.8329176 117.242053,49.4529675 117.03892,50.486384 C116.835788,51.5198004 117.445185,52.7599002 118.460846,52.9665835 L122.523492,54 C122.726624,54 122.929757,54 122.929757,54 C123.945418,54 124.757947,53.3799501 124.96108,52.3465336 C125.164212,51.5198004 124.554815,50.2797007 123.539154,50.0730174 Z" id="Shape"></path>
            <path d="M117.121243,42.5729407 C117.320574,43.3884032 118.117899,44 119.114555,44 C119.313886,44 119.513217,44 119.712549,44 L123.499841,42.9806719 C124.496497,42.7768063 125.293822,41.5536126 124.89516,40.5342846 C124.695828,39.5149565 123.499841,38.6994941 122.503185,39.1072253 L118.715893,40.1265533 C117.320574,40.330419 116.722581,41.5536126 117.121243,42.5729407 Z" id="Shape"></path>
            <path d="M114.866246,38 C115.274684,38 115.887342,37.7949525 116.295781,37.3848576 L119.35907,34.5141933 C120.175947,33.6940034 120.175947,32.4637187 119.56329,31.6435289 C118.746412,30.8233391 117.521097,30.8233391 116.704219,31.4384814 L113.64093,34.3091458 C112.824053,35.1293356 112.824053,36.3596204 113.43671,37.1798102 C113.64093,37.7949525 114.253588,38 114.866246,38 Z" id="Shape"></path>
            <path d="M108.340813,33.7981147 C108.527254,33.7981147 108.713696,34 108.900137,34 C109.645903,34 110.391669,33.3943441 110.578111,32.5868029 L111.883201,28.7509823 C112.256084,27.7415559 111.69676,26.5302441 110.764552,26.1264735 C109.832345,25.7227029 108.713696,26.3283588 108.340813,27.3377853 L107.035723,31.1736059 C106.849281,32.1830323 107.408606,33.3943441 108.340813,33.7981147 Z" id="Shape"></path>
            <path d="M101.948259,34 C101.948259,34 102.172389,34 102.172389,34 C103.293037,33.79568 104.189555,32.7740798 103.965426,31.7524796 L103.293037,27.6660789 C103.068907,26.6444788 101.948259,25.8271986 100.827611,26.0315187 C99.7069633,26.2358387 98.8104449,27.2574389 99.0345745,28.279039 L99.7069633,32.3654397 C99.9310929,33.1827199 100.827611,34 101.948259,34 Z" id="Shape"></path>
            <path d="M94.0553956,35.216659 C94.5,35.8041648 95.1669066,36 95.8338132,36 C96.2784177,36 96.7230221,35.8041648 97.1676265,35.6083295 C98.0568353,35.0208238 98.2791375,33.6499771 97.6122309,32.8666362 L94.9446044,29.7332724 C94.2776978,28.9499314 92.7215823,28.7540962 91.8323735,29.3416019 C90.9431647,29.9291076 90.7208625,31.2999543 91.3877691,32.0832952 L94.0553956,35.216659 Z" id="Shape"></path>
            <path d="M87.0754549,39.2618615 L90.4325174,40.8261861 C90.6190208,41 90.9920278,41 91.1785312,41 C91.9245451,41 92.4840555,40.6523723 92.8570625,39.9571169 C93.2300694,39.0880476 92.8570625,38.0451645 91.9245451,37.6975368 L88.5674826,36.1332121 C87.6349653,35.7855844 86.5159445,36.1332121 86.1429375,37.0022814 C85.7699306,37.8713507 86.1429375,38.9142338 87.0754549,39.2618615 Z" id="Shape"></path>
        </g>
    </g>
</svg>