<?xml version="1.0" encoding="UTF-8"?>
<svg width="151px" height="180px" viewBox="0 0 151 180" version="1.1" xmlns="http://www.w3.org/2000/svg" xmlns:xlink="http://www.w3.org/1999/xlink">
    <!-- Generator: Sketch 48.1 (47250) - http://www.bohemiancoding.com/sketch -->
    <title>Page 1</title>
    <desc>Created with Sketch.</desc>
    <defs>
        <polygon id="path-1" points="0 179.205 150.975 179.205 150.975 0 0 0"></polygon>
    </defs>
    <g id="iPhone-8-Copy-18" stroke="none" stroke-width="1" fill="none" fill-rule="evenodd" transform="translate(-112.000000, -197.000000)">
        <g id="Page-1" transform="translate(112.000000, 197.000000)">
            <path d="M10.437,13.9257 C2.116,64.3507 1.531,115.8387 8.684,166.4127 C9.612,172.9737 15.223,177.8537 21.848,177.8537 L129.126,177.8537 C135.752,177.8537 141.363,172.9737 142.291,166.4127 C149.444,115.8387 148.859,64.3507 140.538,13.9257 L10.437,13.9257 Z" id="Fill-1" fill="#E5D6E9"></path>
            <path d="M142.2905,158.6855 C141.3625,165.2465 135.7525,170.1255 129.1265,170.1255 L21.8495,170.1255 C15.2235,170.1255 9.6115,165.2465 8.6845,158.6855 C5.5705,136.6735 3.9255,114.4895 3.7425,92.2935 C3.5665,117.0655 5.2095,141.8465 8.6845,166.4135 C9.6115,172.9735 15.2235,177.8535 21.8495,177.8535 L129.1265,177.8535 C135.7525,177.8535 141.3625,172.9735 142.2905,166.4135 C145.7655,141.8465 147.4085,117.0655 147.2315,92.2935 C147.0505,114.4895 145.4035,136.6735 142.2905,158.6855" id="Fill-3" fill="#AA9AAF"></path>
            <mask id="mask-2" fill="white">
                <use xlink:href="#path-1"></use>
            </mask>
            <g id="Clip-6"></g>
            <polygon id="Fill-5" fill="#DCB08C" mask="url(#mask-2)" points="11.194 124.52 139.781 124.52 139.781 18.272 11.194 18.272"></polygon>
            <path d="M135.1528,131.6533 L15.8218,131.6533 C13.2658,131.6533 11.1938,129.5823 11.1938,127.0253 L11.1938,30.0333 C11.1938,27.4773 13.2658,25.4053 15.8218,25.4053 L135.1528,25.4053 C137.7088,25.4053 139.7808,27.4773 139.7808,30.0333 L139.7808,127.0253 C139.7808,129.5823 137.7088,131.6533 135.1528,131.6533" id="Fill-7" fill="#AA9AAF" mask="url(#mask-2)"></path>
            <polygon id="Fill-8" fill="#E5D6E9" mask="url(#mask-2)" points="11.194 124.52 139.781 124.52 139.781 18.272 11.194 18.272"></polygon>
            <path d="M20.9399,58.2299 L130.0349,58.2299 C136.1729,58.2299 141.6509,55.4039 145.2429,50.9839 C144.1329,38.5879 142.5679,26.2249 140.5379,13.9259 L10.4369,13.9259 C8.4079,26.2249 6.8409,38.5879 5.7329,50.9839 C9.3239,55.4039 14.8009,58.2299 20.9399,58.2299" id="Fill-9" fill="#AA9AAF" mask="url(#mask-2)"></path>
            <path d="M11.5845,15.2768 C3.4515,65.2668 2.9255,116.0478 10.0225,166.2238 C10.8515,172.0838 15.9355,176.5028 21.8495,176.5028 L129.1265,176.5028 C135.0395,176.5028 140.1245,172.0838 140.9525,166.2238 C148.0495,116.0478 147.5225,65.2668 139.3905,15.2768 L11.5845,15.2768 Z M129.1265,179.2048 L21.8495,179.2048 C14.5975,179.2048 8.3625,173.7868 7.3465,166.6028 C0.1575,115.7748 0.7495,64.3328 9.1045,13.7058 C9.2115,13.0528 9.7755,12.5748 10.4375,12.5748 L140.5375,12.5748 C141.1985,12.5748 141.7635,13.0528 141.8705,13.7058 C150.2265,64.3328 150.8165,115.7748 143.6285,166.6028 C142.6125,173.7868 136.3775,179.2048 129.1265,179.2048 Z" id="Fill-10" fill="#24093F" mask="url(#mask-2)"></path>
            <path d="M12.545,123.169 L138.429,123.169 L138.429,19.624 L12.545,19.624 L12.545,123.169 Z M139.781,125.872 L11.194,125.872 C10.448,125.872 9.843,125.267 9.843,124.52 L9.843,18.272 C9.843,17.526 10.448,16.921 11.194,16.921 L139.781,16.921 C140.527,16.921 141.132,17.526 141.132,18.272 L141.132,124.52 C141.132,125.267 140.527,125.872 139.781,125.872 Z" id="Fill-11" fill="#24093F" mask="url(#mask-2)"></path>
            <path d="M1.3511,9.393 L1.3511,33.196 C1.3511,44.015 10.1221,52.785 20.9401,52.785 L130.0351,52.785 C140.8531,52.785 149.6231,44.015 149.6231,33.196 L149.6231,9.393 C149.6231,4.952 146.0231,1.351 141.5821,1.351 L9.3931,1.351 C4.9521,1.351 1.3511,4.952 1.3511,9.393" id="Fill-12" fill="#E5D6E9" mask="url(#mask-2)"></path>
            <path d="M141.5825,1.3515 L9.3935,1.3515 C4.9515,1.3515 1.3515,4.9515 1.3515,9.3935 L1.3515,16.1995 C1.3515,11.7585 4.9515,8.1575 9.3935,8.1575 L141.5825,8.1575 C146.0225,8.1575 149.6235,11.7585 149.6235,16.1995 L149.6235,9.3935 C149.6235,4.9515 146.0225,1.3515 141.5825,1.3515" id="Fill-13" fill="#AA9AAF" mask="url(#mask-2)"></path>
            <path d="M9.3931,2.7026 C5.7041,2.7026 2.7031,5.7036 2.7031,9.3926 L2.7031,33.1956 C2.7031,43.2526 10.8831,51.4336 20.9401,51.4336 L130.0351,51.4336 C140.0911,51.4336 148.2731,43.2526 148.2731,33.1956 L148.2731,9.3926 C148.2731,5.7036 145.2711,2.7026 141.5821,2.7026 L9.3931,2.7026 Z M130.0351,54.1356 L20.9401,54.1356 C9.3941,54.1356 0.0001,44.7426 0.0001,33.1956 L0.0001,9.3926 C0.0001,4.2136 4.2131,0.0006 9.3931,0.0006 L141.5821,0.0006 C146.7611,0.0006 150.9751,4.2136 150.9751,9.3926 L150.9751,33.1956 C150.9751,44.7426 141.5811,54.1356 130.0351,54.1356 Z" id="Fill-14" fill="#24093F" mask="url(#mask-2)"></path>
            <polygon id="Fill-15" fill="#7A688E" mask="url(#mask-2)" points="111.229 94.922 123.794 94.922 123.794 27.068 111.229 27.068"></polygon>
            <path d="M112.581,93.57 L122.444,93.57 L122.444,28.419 L112.581,28.419 L112.581,93.57 Z M123.794,96.272 L111.229,96.272 C110.483,96.272 109.878,95.668 109.878,94.922 L109.878,27.068 C109.878,26.322 110.483,25.717 111.229,25.717 L123.794,25.717 C124.541,25.717 125.146,26.322 125.146,27.068 L125.146,94.922 C125.146,95.668 124.541,96.272 123.794,96.272 Z" id="Fill-16" fill="#24093F" mask="url(#mask-2)"></path>
            <path d="M111.229,78.377 L123.794,78.377 L123.794,67.487 L111.229,67.487 L111.229,78.377 Z M106.203,83.403 L128.821,83.403 L128.821,62.461 L106.203,62.461 L106.203,83.403 Z" id="Fill-17" fill="#DBB7D6" mask="url(#mask-2)"></path>
            <path d="M112.581,77.026 L122.444,77.026 L122.444,68.838 L112.581,68.838 L112.581,77.026 Z M123.794,79.728 L111.229,79.728 C110.483,79.728 109.878,79.124 109.878,78.377 L109.878,67.487 C109.878,66.741 110.483,66.136 111.229,66.136 L123.794,66.136 C124.541,66.136 125.146,66.741 125.146,67.487 L125.146,78.377 C125.146,79.124 124.541,79.728 123.794,79.728 Z M107.554,82.053 L127.47,82.053 L127.47,63.812 L107.554,63.812 L107.554,82.053 Z M128.821,84.755 L106.203,84.755 C105.457,84.755 104.852,84.149 104.852,83.403 L104.852,62.461 C104.852,61.715 105.457,61.11 106.203,61.11 L128.821,61.11 C129.567,61.11 130.172,61.715 130.172,62.461 L130.172,83.403 C130.172,84.149 129.567,84.755 128.821,84.755 Z" id="Fill-18" fill="#24093F" mask="url(#mask-2)"></path>
            <path d="M117.5122,33.8745 C116.0662,33.8745 114.8942,35.0465 114.8942,36.4925 C114.8942,37.9375 116.0662,39.1105 117.5122,39.1105 C118.9572,39.1105 120.1292,37.9375 120.1292,36.4925 C120.1292,35.0465 118.9572,33.8745 117.5122,33.8745" id="Fill-19" fill="#E5D6E9" mask="url(#mask-2)"></path>
            <path d="M117.5122,45.2881 C116.0662,45.2881 114.8942,46.4601 114.8942,47.9061 C114.8942,49.3511 116.0662,50.5241 117.5122,50.5241 C118.9572,50.5241 120.1292,49.3511 120.1292,47.9061 C120.1292,46.4601 118.9572,45.2881 117.5122,45.2881" id="Fill-20" fill="#E5D6E9" mask="url(#mask-2)"></path>
            <polygon id="Fill-21" fill="#7A688E" mask="url(#mask-2)" points="27.18 94.922 39.745 94.922 39.745 27.068 27.18 27.068"></polygon>
            <path d="M28.531,93.57 L38.394,93.57 L38.394,28.419 L28.531,28.419 L28.531,93.57 Z M39.746,96.272 L27.18,96.272 C26.434,96.272 25.829,95.668 25.829,94.922 L25.829,27.068 C25.829,26.322 26.434,25.717 27.18,25.717 L39.746,25.717 C40.492,25.717 41.097,26.322 41.097,27.068 L41.097,94.922 C41.097,95.668 40.492,96.272 39.746,96.272 Z" id="Fill-22" fill="#24093F" mask="url(#mask-2)"></path>
            <path d="M27.181,78.377 L39.746,78.377 L39.746,67.487 L27.181,67.487 L27.181,78.377 Z M22.154,83.403 L44.772,83.403 L44.772,62.461 L22.154,62.461 L22.154,83.403 Z" id="Fill-23" fill="#DBB7D6" mask="url(#mask-2)"></path>
            <path d="M28.531,77.026 L38.394,77.026 L38.394,68.838 L28.531,68.838 L28.531,77.026 Z M39.746,79.728 L27.18,79.728 C26.434,79.728 25.829,79.124 25.829,78.377 L25.829,67.487 C25.829,66.741 26.434,66.136 27.18,66.136 L39.746,66.136 C40.492,66.136 41.097,66.741 41.097,67.487 L41.097,78.377 C41.097,79.124 40.492,79.728 39.746,79.728 Z M23.505,82.053 L43.42,82.053 L43.42,63.812 L23.505,63.812 L23.505,82.053 Z M44.772,84.755 L22.154,84.755 C21.408,84.755 20.802,84.149 20.802,83.403 L20.802,62.461 C20.802,61.715 21.408,61.11 22.154,61.11 L44.772,61.11 C45.518,61.11 46.123,61.715 46.123,62.461 L46.123,83.403 C46.123,84.149 45.518,84.755 44.772,84.755 Z" id="Fill-24" fill="#24093F" mask="url(#mask-2)"></path>
            <path d="M33.4634,33.8745 C32.0174,33.8745 30.8454,35.0465 30.8454,36.4925 C30.8454,37.9375 32.0174,39.1105 33.4634,39.1105 C34.9084,39.1105 36.0804,37.9375 36.0804,36.4925 C36.0804,35.0465 34.9084,33.8745 33.4634,33.8745" id="Fill-25" fill="#E5D6E9" mask="url(#mask-2)"></path>
            <path d="M33.4634,45.2881 C32.0174,45.2881 30.8454,46.4601 30.8454,47.9061 C30.8454,49.3511 32.0174,50.5241 33.4634,50.5241 C34.9084,50.5241 36.0804,49.3511 36.0804,47.9061 C36.0804,46.4601 34.9084,45.2881 33.4634,45.2881" id="Fill-26" fill="#E5D6E9" mask="url(#mask-2)"></path>
            <path d="M75.4878,106.8838 C73.1528,106.8838 71.2538,108.7828 71.2538,111.1168 C71.2538,113.4508 73.1528,115.3508 75.4878,115.3508 C77.8218,115.3508 79.7208,113.4508 79.7208,111.1168 C79.7208,108.7828 77.8218,106.8838 75.4878,106.8838 M75.4878,118.0528 C71.6628,118.0528 68.5508,114.9418 68.5508,111.1168 C68.5508,107.2928 71.6628,104.1818 75.4878,104.1818 C79.3118,104.1818 82.4238,107.2928 82.4238,111.1168 C82.4238,114.9418 79.3118,118.0528 75.4878,118.0528" id="Fill-27" fill="#24093F" mask="url(#mask-2)"></path>
            <path d="M69.8579,144.6699 L81.1169,144.6699 L81.1169,139.0409 C81.1169,135.9369 78.5909,133.4109 75.4879,133.4109 C72.3829,133.4109 69.8579,135.9369 69.8579,139.0409 L69.8579,144.6699 Z M82.4679,147.3719 L68.5059,147.3719 C67.7599,147.3719 67.1559,146.7679 67.1559,146.0219 L67.1559,139.0409 C67.1559,134.4459 70.8929,130.7079 75.4879,130.7079 C80.0819,130.7079 83.8189,134.4459 83.8189,139.0409 L83.8189,146.0219 C83.8189,146.7679 83.2139,147.3719 82.4679,147.3719 Z" id="Fill-28" fill="#24093F" mask="url(#mask-2)"></path>
            <path d="M103.3276,164.9638 C103.0376,164.9638 102.7456,164.8708 102.4986,164.6798 C94.7116,158.6268 85.3706,155.4278 75.4876,155.4278 C65.6036,155.4278 56.2636,158.6268 48.4756,164.6798 C47.8866,165.1378 47.0376,165.0308 46.5796,164.4428 C46.1216,163.8528 46.2276,163.0038 46.8166,162.5458 C55.0836,156.1208 64.9976,152.7258 75.4876,152.7258 C85.9766,152.7258 95.8906,156.1208 104.1576,162.5458 C104.7466,163.0038 104.8526,163.8528 104.3946,164.4428 C104.1286,164.7848 103.7296,164.9638 103.3276,164.9638" id="Fill-29" fill="#24093F" mask="url(#mask-2)"></path>
            <polygon id="Fill-30" fill="#7A688E" mask="url(#mask-2)" points="71.02 160.82 79.956 160.82 79.956 142.112 71.02 142.112"></polygon>
            <path d="M72.371,159.47 L78.604,159.47 L78.604,143.463 L72.371,143.463 L72.371,159.47 Z M79.956,162.172 L71.02,162.172 C70.274,162.172 69.668,161.566 69.668,160.82 L69.668,142.112 C69.668,141.366 70.274,140.761 71.02,140.761 L79.956,140.761 C80.702,140.761 81.306,141.366 81.306,142.112 L81.306,160.82 C81.306,161.566 80.702,162.172 79.956,162.172 Z" id="Fill-31" fill="#24093F" mask="url(#mask-2)"></path>
            <path d="M75.4878,137.3769 C74.7418,137.3769 74.1358,136.7719 74.1358,136.0249 L74.1358,112.5139 C74.1358,111.7679 74.7418,111.1619 75.4878,111.1619 C76.2338,111.1619 76.8388,111.7679 76.8388,112.5139 L76.8388,136.0249 C76.8388,136.7719 76.2338,137.3769 75.4878,137.3769" id="Fill-32" fill="#24093F" mask="url(#mask-2)"></path>
        </g>
    </g>
</svg>