<?xml version="1.0" encoding="UTF-8"?>
<svg width="156px" height="204px" viewBox="0 0 156 204" version="1.1" xmlns="http://www.w3.org/2000/svg" xmlns:xlink="http://www.w3.org/1999/xlink">
    <!-- Generator: Sketch 48.1 (47250) - http://www.bohemiancoding.com/sketch -->
    <title>Page 1</title>
    <desc>Created with Sketch.</desc>
    <defs>
        <polygon id="path-1" points="0 203.154 157 203.154 157 0 0 0"></polygon>
    </defs>
    <g id="iPhone-8-Copy-19" stroke="none" stroke-width="1" fill="none" fill-rule="evenodd" transform="translate(-109.000000, -185.000000)">
        <g id="Page-1" transform="translate(109.000000, 185.000000)">
            <path d="M78,1.89530907 C68.0178866,1.89530907 59.8952758,10.0173608 59.8952758,20.0003507 C59.8952758,29.9833406 68.0178866,38.1053924 78,38.1053924 C87.9828149,38.1053924 96.1047242,29.9833406 96.1047242,20.0003507 C96.1047242,10.0173608 87.9828149,1.89530907 78,1.89530907 M78,40 C66.9720478,40 58,31.0284963 58,20.0003507 C58,8.97150373 66.9720478,0 78,0 C89.0286536,0 98,8.97150373 98,20.0003507 C98,31.0284963 89.0286536,40 78,40" id="Fill-1" fill="#24093F"></path>
            <mask id="mask-2" fill="white">
                <use xlink:href="#path-1"></use>
            </mask>
            <g id="Clip-4"></g>
            <polygon id="Fill-3" fill="#DBB7D6" mask="url(#mask-2)" points="71.844 56.973 83.853 56.973 83.853 32.67 71.844 32.67"></polygon>
            <path d="M73.195,55.622 L82.501,55.622 L82.501,34.022 L73.195,34.022 L73.195,55.622 Z M83.852,58.324 L71.844,58.324 C71.097,58.324 70.492,57.72 70.492,56.973 L70.492,32.671 C70.492,31.924 71.097,31.319 71.844,31.319 L83.852,31.319 C84.598,31.319 85.203,31.924 85.203,32.671 L85.203,56.973 C85.203,57.72 84.598,58.324 83.852,58.324 Z" id="Fill-5" fill="#24093F" mask="url(#mask-2)"></path>
            <path d="M77.8474,48.8094 C35.5994,48.8094 1.3514,83.0584 1.3514,125.3064 C1.3514,167.5534 35.5994,201.8024 77.8474,201.8024 C120.0954,201.8024 154.3444,167.5534 154.3444,125.3064 C154.3444,83.0584 120.0954,48.8094 77.8474,48.8094" id="Fill-6" fill="#E5D6E9" mask="url(#mask-2)"></path>
            <path d="M154.3445,125.3065 C154.3445,83.0585 120.0955,48.8095 77.8475,48.8095 L77.8475,201.8025 C120.0955,201.8025 154.3445,167.5535 154.3445,125.3065" id="Fill-7" fill="#7A688E" mask="url(#mask-2)"></path>
            <path d="M77.8474,50.161 C36.4124,50.161 2.7014,83.871 2.7014,125.306 C2.7014,166.741 36.4124,200.452 77.8474,200.452 C119.2834,200.452 152.9924,166.741 152.9924,125.306 C152.9924,83.871 119.2834,50.161 77.8474,50.161 M77.8474,203.154 C57.0534,203.154 37.5044,195.057 22.8014,180.353 C8.0974,165.649 -0.0006,146.099 -0.0006,125.306 C-0.0006,104.513 8.0974,84.963 22.8014,70.26 C37.5044,55.557 57.0534,47.459 77.8474,47.459 C98.6414,47.459 118.1914,55.557 132.8944,70.26 C147.5974,84.963 155.6954,104.513 155.6954,125.306 C155.6954,146.099 147.5974,165.649 132.8944,180.353 C118.1914,195.057 98.6414,203.154 77.8474,203.154" id="Fill-8" fill="#24093F" mask="url(#mask-2)"></path>
            <path d="M18.6074,125.3062 C18.6074,158.0232 45.1304,184.5462 77.8474,184.5462 C110.5654,184.5462 137.0874,158.0232 137.0874,125.3062 C137.0874,92.5882 110.5654,66.0662 77.8474,66.0662 C45.1304,66.0662 18.6074,92.5882 18.6074,125.3062 Z" id="Fill-9" fill="#F2EBF4" mask="url(#mask-2)"></path>
            <path d="M77.8474,67.4168 C45.9274,67.4168 19.9584,93.3858 19.9584,125.3068 C19.9584,157.2268 45.9274,183.1948 77.8474,183.1948 C109.7684,183.1948 135.7374,157.2268 135.7374,125.3068 C135.7374,93.3858 109.7684,67.4168 77.8474,67.4168 M77.8474,185.8968 C44.4374,185.8968 17.2564,158.7168 17.2564,125.3068 C17.2564,91.8958 44.4374,64.7148 77.8474,64.7148 C111.2574,64.7148 138.4394,91.8958 138.4394,125.3068 C138.4394,158.7168 111.2574,185.8968 77.8474,185.8968" id="Fill-10" fill="#24093F" mask="url(#mask-2)"></path>
            <path d="M77.8474,92.868 C59.9604,92.868 45.4094,107.42 45.4094,125.306 C45.4094,143.193 59.9604,157.745 77.8474,157.745 C95.7344,157.745 110.2854,143.193 110.2854,125.306 C110.2854,107.42 95.7344,92.868 77.8474,92.868 M77.8474,159.771 C58.8434,159.771 43.3824,144.31 43.3824,125.306 C43.3824,106.303 58.8434,90.841 77.8474,90.841 C96.8524,90.841 112.3134,106.303 112.3134,125.306 C112.3134,144.31 96.8524,159.771 77.8474,159.771" id="Fill-11" fill="#24093F" mask="url(#mask-2)"></path>
            <path d="M77.8474,92.868 C77.2874,92.868 76.8344,92.414 76.8344,91.854 L76.8344,84.421 C76.8344,83.861 77.2874,83.407 77.8474,83.407 C78.4074,83.407 78.8614,83.861 78.8614,84.421 L78.8614,91.854 C78.8614,92.414 78.4074,92.868 77.8474,92.868" id="Fill-12" fill="#24093F" mask="url(#mask-2)"></path>
            <path d="M44.3962,126.3201 L36.9612,126.3201 C36.4022,126.3201 35.9492,125.8661 35.9492,125.3061 C35.9492,124.7471 36.4022,124.2931 36.9612,124.2931 L44.3962,124.2931 C44.9562,124.2931 45.4092,124.7471 45.4092,125.3061 C45.4092,125.8661 44.9562,126.3201 44.3962,126.3201" id="Fill-13" fill="#24093F" mask="url(#mask-2)"></path>
            <path d="M77.8474,167.2049 C77.2874,167.2049 76.8344,166.7519 76.8344,166.1909 L76.8344,158.7579 C76.8344,158.1979 77.2874,157.7449 77.8474,157.7449 C78.4074,157.7449 78.8614,158.1979 78.8614,158.7579 L78.8614,166.1909 C78.8614,166.7519 78.4074,167.2049 77.8474,167.2049" id="Fill-14" fill="#24093F" mask="url(#mask-2)"></path>
            <path d="M118.7332,126.3201 L111.2992,126.3201 C110.7402,126.3201 110.2862,125.8661 110.2862,125.3061 C110.2862,124.7471 110.7402,124.2931 111.2992,124.2931 L118.7332,124.2931 C119.2932,124.2931 119.7472,124.7471 119.7472,125.3061 C119.7472,125.8661 119.2932,126.3201 118.7332,126.3201" id="Fill-15" fill="#24093F" mask="url(#mask-2)"></path>
            <polygon id="Fill-16" fill="#C6B4D7" mask="url(#mask-2)" points="100.2781 86.4549 69.4291 120.4459 55.4171 164.1579 86.2661 130.1669"></polygon>
            <polygon id="Fill-17" fill="#6C489C" mask="url(#mask-2)" points="86.2664 130.1668 100.2784 86.4548 55.4164 164.1578"></polygon>
            <polygon id="Fill-18" fill="#FEFEFE" mask="url(#mask-2)" points="69.4294 120.4461 86.2664 130.1671 100.2784 86.4551"></polygon>
            <polygon id="Fill-19" fill="#C6B4D7" mask="url(#mask-2)" points="86.2664 130.1668 100.2784 86.4548 77.8474 125.3068"></polygon>
            <path d="M70.6267,121.1375 L58.6067,158.6325 L85.0687,129.4755 L97.0887,91.9805 L70.6267,121.1375 Z M55.4157,165.5085 C55.1857,165.5085 54.9527,165.4505 54.7407,165.3275 C54.1897,165.0095 53.9367,164.3515 54.1297,163.7445 L68.1427,120.0335 C68.2007,119.8495 68.2987,119.6805 68.4287,119.5375 L99.2777,85.5465 C99.7057,85.0755 100.4027,84.9665 100.9537,85.2845 C101.5047,85.6025 101.7597,86.2615 101.5647,86.8665 L87.5537,130.5785 C87.4937,130.7625 87.3967,130.9325 87.2667,131.0755 L56.4177,165.0655 C56.1537,165.3565 55.7877,165.5085 55.4157,165.5085 Z" id="Fill-20" fill="#24093F" mask="url(#mask-2)"></path>
        </g>
    </g>
</svg>