<?xml version="1.0" encoding="UTF-8"?>
<svg width="21px" height="25px" viewBox="0 0 21 25" version="1.1" xmlns="http://www.w3.org/2000/svg" xmlns:xlink="http://www.w3.org/1999/xlink">
    <!-- Generator: Sketch 48.1 (47250) - http://www.bohemiancoding.com/sketch -->
    <title>pin</title>
    <desc>Created with Sketch.</desc>
    <defs>
        <path d="M10.4922222,0.231481481 C4.81128472,0.231481481 0.186666667,4.81939622 0.186666667,10.4552469 C0.186666667,12.2635754 0.714826389,14.1421923 1.76470486,16.0399788 C2.57626736,17.5160349 3.7034375,19.0112606 5.10756944,20.4873167 C7.47784722,22.9729697 9.82236111,24.5320939 9.91897569,24.5959925 C10.0928819,24.7110098 10.2925521,24.7685185 10.4922222,24.7685185 C10.6918924,24.7685185 10.8915625,24.7110098 11.0654687,24.5959925 C11.1620833,24.5320939 13.5065972,22.9729697 15.876875,20.4873167 C17.2874479,19.0112606 18.4081771,17.5160349 19.2197396,16.0399788 C20.2631771,14.1421923 20.7977778,12.2571856 20.7977778,10.4552469 C20.7977778,4.81939622 16.1731597,0.231481481 10.4922222,0.231481481 Z M10.4922222,22.4873409 C8.53416667,21.0496238 2.24777778,15.98886 2.24777778,10.4552469 C2.24777778,5.94401042 5.94489583,2.27623457 10.4922222,2.27623457 C15.0395486,2.27623457 18.7366667,5.94401042 18.7366667,10.4552469 C18.7366667,15.98886 12.4438368,21.0496238 10.4922222,22.4873409 Z M10.4922222,6.36574074 C8.21855903,6.36574074 6.37,8.19962867 6.37,10.4552469 C6.37,12.7108652 8.21855903,14.5447531 10.4922222,14.5447531 C12.7658854,14.5447531 14.6144444,12.7108652 14.6144444,10.4552469 C14.6144444,8.19962867 12.7658854,6.36574074 10.4922222,6.36574074 Z M10.4922222,12.5 C9.35861111,12.5 8.43111111,11.5798611 8.43111111,10.4552469 C8.43111111,9.33063272 9.35861111,8.41049383 10.4922222,8.41049383 C11.6258333,8.41049383 12.5533333,9.33063272 12.5533333,10.4552469 C12.5533333,11.5798611 11.6258333,12.5 10.4922222,12.5 Z" id="path-1"></path>
    </defs>
    <g id="iPhone-8-Copy-21" stroke="none" stroke-width="1" fill="none" fill-rule="evenodd" transform="translate(-224.000000, -288.000000)">
        <g id="pin" transform="translate(224.000000, 288.000000)">
            <g id="icons/ic-place">
                <mask id="mask-2" fill="white">
                    <use xlink:href="#path-1"></use>
                </mask>
                <use id="Mask" fill="#1D3330" fill-rule="nonzero" xlink:href="#path-1"></use>
                <g id="COLORS/Primary/Light" transform="translate(-4.760000, -2.222222)" fill="#EFF2F5">
                    <rect x="0" y="0" width="30" height="29"></rect>
                </g>
            </g>
        </g>
    </g>
</svg>