<?xml version="1.0" encoding="UTF-8"?>
<svg width="115px" height="213px" viewBox="0 0 115 213" version="1.1" xmlns="http://www.w3.org/2000/svg" xmlns:xlink="http://www.w3.org/1999/xlink">
    <!-- Generator: Sketch 48.1 (47250) - http://www.bohemiancoding.com/sketch -->
    <title>Page 1</title>
    <desc>Created with Sketch.</desc>
    <defs>
        <polygon id="path-1" points="0 0.9314 114.235 0.9314 114.235 142.6824 0 142.6824"></polygon>
        <polygon id="path-3" points="0 212.915 114.235 212.915 114.235 0 0 0"></polygon>
    </defs>
    <g id="iPhone-8-Copy-20" stroke="none" stroke-width="1" fill="none" fill-rule="evenodd" transform="translate(-130.000000, -180.000000)">
        <g id="Page-1" transform="translate(130.000000, 180.000000)">
            <path d="M35.297,51.6328 C28.288,51.6328 22.255,56.8648 21.266,63.8048 L7.971,156.9578 C7.222,162.2038 8.783,167.5088 12.256,171.5118 C15.729,175.5158 20.76,177.8118 26.059,177.8118 L88.177,177.8118 C93.476,177.8118 98.507,175.5158 101.98,171.5118 C105.452,167.5088 107.014,162.2038 106.265,156.9578 L92.97,63.8048 C91.981,56.8648 85.947,51.6328 78.939,51.6328 L35.297,51.6328 Z M88.177,184.2458 L26.059,184.2458 C18.893,184.2458 12.09,181.1418 7.395,175.7288 C2.699,170.3158 0.587,163.1428 1.6,156.0478 L14.895,62.8958 C16.334,52.8068 25.106,45.1978 35.297,45.1978 L78.939,45.1978 C89.13,45.1978 97.902,52.8068 99.341,62.8958 L112.636,156.0478 C113.649,163.1428 111.536,170.3158 106.841,175.7288 C102.146,181.1418 95.342,184.2458 88.177,184.2458 Z" id="Fill-1" fill="#E5D6E9"></path>
            <g id="Group-5" transform="translate(0.000000, 42.915000)">
                <mask id="mask-2" fill="white">
                    <use xlink:href="#path-1"></use>
                </mask>
                <g id="Clip-4"></g>
                <path d="M35.297,10.0694 C28.956,10.0694 23.498,14.8024 22.603,21.0804 L9.308,114.2334 C8.614,119.0914 10.061,124.0044 13.276,127.7124 C16.492,131.4194 21.151,133.5454 26.059,133.5454 L88.177,133.5454 C93.084,133.5454 97.743,131.4194 100.959,127.7124 C104.175,124.0044 105.621,119.0914 104.927,114.2334 L91.633,21.0804 C90.736,14.8024 85.279,10.0694 78.939,10.0694 L35.297,10.0694 Z M88.177,136.2474 L26.059,136.2474 C20.367,136.2474 14.964,133.7814 11.235,129.4824 C7.506,125.1824 5.828,119.4854 6.633,113.8514 L19.928,20.6984 C21.012,13.0984 27.619,7.3674 35.297,7.3674 L78.939,7.3674 C86.616,7.3674 93.224,13.0984 94.308,20.6984 L107.603,113.8514 C108.407,119.4854 106.73,125.1824 103,129.4824 C99.271,133.7814 93.868,136.2474 88.177,136.2474 Z M35.297,3.6334 C25.774,3.6334 17.577,10.7434 16.233,20.1714 L2.938,113.3244 C1.98,120.0304 3.977,126.8104 8.415,131.9274 C12.854,137.0464 19.284,139.9804 26.059,139.9804 L88.177,139.9804 C94.95,139.9804 101.382,137.0464 105.82,131.9274 C110.259,126.8104 112.255,120.0304 111.298,113.3244 L98.003,20.1714 C96.657,10.7434 88.462,3.6334 78.939,3.6334 L35.297,3.6334 Z M88.177,142.6824 L26.059,142.6824 C18.501,142.6824 11.326,139.4084 6.374,133.6994 C1.422,127.9894 -0.806,120.4234 0.262,112.9424 L13.557,19.7894 C15.091,9.0384 24.438,0.9314 35.297,0.9314 L78.939,0.9314 C89.798,0.9314 99.145,9.0384 100.679,19.7894 L113.974,112.9424 C115.041,120.4234 112.814,127.9894 107.861,133.6994 C102.909,139.4084 95.735,142.6824 88.177,142.6824 Z" id="Fill-3" fill="#24093F" mask="url(#mask-2)"></path>
            </g>
            <mask id="mask-4" fill="white">
                <use xlink:href="#path-3"></use>
            </mask>
            <g id="Clip-7"></g>
            <polygon id="Fill-6" fill="#E5D6E9" mask="url(#mask-4)" points="27.594 202.549 86.642 202.549 86.642 175.119 27.594 175.119"></polygon>
            <polygon id="Fill-8" fill="#7A688E" mask="url(#mask-4)" points="69.484 202.549 86.642 202.549 86.642 175.119 69.484 175.119"></polygon>
            <path d="M28.944,201.197 L85.291,201.197 L85.291,176.47 L28.944,176.47 L28.944,201.197 Z M86.642,203.9 L27.594,203.9 C26.848,203.9 26.242,203.295 26.242,202.549 L26.242,175.119 C26.242,174.373 26.848,173.769 27.594,173.769 L86.642,173.769 C87.388,173.769 87.993,174.373 87.993,175.119 L87.993,202.549 C87.993,203.295 87.388,203.9 86.642,203.9 Z" id="Fill-9" fill="#24093F" mask="url(#mask-4)"></path>
            <polygon id="Fill-10" fill="#E5D6E9" mask="url(#mask-4)" points="41.243 175.119 72.992 175.119 72.992 165.705 41.243 165.705"></polygon>
            <polygon id="Fill-11" fill="#7A688E" mask="url(#mask-4)" points="60.146 175.119 72.993 175.119 72.993 165.705 60.146 165.705"></polygon>
            <path d="M42.594,173.769 L71.642,173.769 L71.642,167.056 L42.594,167.056 L42.594,173.769 Z M72.992,176.471 L41.243,176.471 C40.497,176.471 39.892,175.866 39.892,175.119 L39.892,165.705 C39.892,164.959 40.497,164.354 41.243,164.354 L72.992,164.354 C73.738,164.354 74.344,164.959 74.344,165.705 L74.344,175.119 C74.344,175.866 73.738,176.471 72.992,176.471 Z" id="Fill-12" fill="#24093F" mask="url(#mask-4)"></path>
            <path d="M21.4054,208.6895 L27.5934,202.5485 L86.6414,202.5485 L92.8304,208.6895 C93.8954,209.7475 93.1474,211.5635 91.6464,211.5635 L22.5894,211.5635 C21.0884,211.5635 20.3404,209.7475 21.4054,208.6895" id="Fill-13" fill="#E5D6E9" mask="url(#mask-4)"></path>
            <path d="M92.8302,208.6895 L86.6422,202.5485 L70.0592,202.5485 L72.7722,208.6895 C73.2402,209.7475 72.9122,211.5635 72.2542,211.5635 L91.6462,211.5635 C93.1472,211.5635 93.8952,209.7475 92.8302,208.6895" id="Fill-14" fill="#7A688E" mask="url(#mask-4)"></path>
            <path d="M21.4044,208.6905 L21.4084,208.6905 L21.4044,208.6905 Z M28.1504,203.9005 L22.3564,209.6485 L22.3564,209.6495 C22.2534,209.7525 22.2284,209.8735 22.2844,210.0085 C22.3404,210.1445 22.4424,210.2125 22.5894,210.2125 L91.6464,210.2125 C91.7934,210.2125 91.8954,210.1445 91.9514,210.0085 C92.0074,209.8735 91.9824,209.7525 91.8794,209.6495 L86.0854,203.9005 L28.1504,203.9005 Z M91.6464,212.9155 L22.5894,212.9155 C21.3554,212.9155 20.2554,212.1775 19.7854,211.0385 C19.3154,209.8975 19.5774,208.5995 20.4534,207.7305 L26.6414,201.5895 C26.8944,201.3385 27.2374,201.1975 27.5934,201.1975 L86.6414,201.1975 C86.9984,201.1975 87.3414,201.3385 87.5934,201.5895 L93.7824,207.7315 C94.6574,208.5995 94.9204,209.8975 94.4504,211.0385 C93.9804,212.1775 92.8804,212.9155 91.6464,212.9155 Z" id="Fill-15" fill="#24093F" mask="url(#mask-4)"></path>
            <polygon id="Fill-16" fill="#E5D6E9" mask="url(#mask-4)" points="44.752 73.477 69.483 73.477 69.483 64.062 44.752 64.062"></polygon>
            <polygon id="Fill-17" fill="#7A688E" mask="url(#mask-4)" points="44.752 67.659 69.483 67.659 69.483 64.062 44.752 64.062"></polygon>
            <path d="M46.104,72.125 L68.132,72.125 L68.132,65.413 L46.104,65.413 L46.104,72.125 Z M69.484,74.827 L44.752,74.827 C44.006,74.827 43.401,74.223 43.401,73.477 L43.401,64.062 C43.401,63.315 44.006,62.711 44.752,62.711 L69.484,62.711 C70.23,62.711 70.834,63.315 70.834,64.062 L70.834,73.477 C70.834,74.223 70.23,74.827 69.484,74.827 Z" id="Fill-18" fill="#24093F" mask="url(#mask-4)"></path>
            <polygon id="Fill-19" fill="#E5D6E9" mask="url(#mask-4)" points="40.462 64.062 73.774 64.062 73.774 30.751 40.462 30.751"></polygon>
            <polygon id="Fill-20" fill="#7A688E" mask="url(#mask-4)" points="61.597 64.062 73.774 64.062 73.774 30.751 61.597 30.751"></polygon>
            <polygon id="Fill-21" fill="#7A688E" mask="url(#mask-4)" points="40.462 35.041 73.774 35.041 73.774 30.751 40.462 30.751"></polygon>
            <path d="M41.814,62.711 L72.422,62.711 L72.422,32.102 L41.814,32.102 L41.814,62.711 Z M73.774,65.413 L40.462,65.413 C39.716,65.413 39.111,64.808 39.111,64.062 L39.111,30.751 C39.111,30.005 39.716,29.399 40.462,29.399 L73.774,29.399 C74.52,29.399 75.124,30.005 75.124,30.751 L75.124,64.062 C75.124,64.808 74.52,65.413 73.774,65.413 Z" id="Fill-22" fill="#24093F" mask="url(#mask-4)"></path>
            <path d="M63.6163,66.75 C62.5013,66.75 61.5963,67.654 61.5963,68.77 C61.5963,69.884 62.5013,70.788 63.6163,70.788 C64.7303,70.788 65.6353,69.884 65.6353,68.77 C65.6353,67.654 64.7303,66.75 63.6163,66.75" id="Fill-23" fill="#24093F" mask="url(#mask-4)"></path>
            <path d="M57.1173,66.75 C56.0033,66.75 55.0983,67.654 55.0983,68.77 C55.0983,69.884 56.0033,70.788 57.1173,70.788 C58.2323,70.788 59.1373,69.884 59.1373,68.77 C59.1373,67.654 58.2323,66.75 57.1173,66.75" id="Fill-24" fill="#24093F" mask="url(#mask-4)"></path>
            <path d="M50.6192,66.75 C49.5052,66.75 48.6002,67.654 48.6002,68.77 C48.6002,69.884 49.5052,70.788 50.6192,70.788 C51.7342,70.788 52.6392,69.884 52.6392,68.77 C52.6392,67.654 51.7342,66.75 50.6192,66.75" id="Fill-25" fill="#24093F" mask="url(#mask-4)"></path>
            <polygon id="Fill-26" fill="#E5D6E9" mask="url(#mask-4)" points="76.7072 24.4414 37.5282 24.4414 33.7432 30.7514 80.4922 30.7514"></polygon>
            <path d="M36.13,29.3995 L78.106,29.3995 L75.942,25.7935 L38.294,25.7935 L36.13,29.3995 Z M80.492,32.1015 L33.743,32.1015 C33.257,32.1015 32.808,31.8395 32.567,31.4165 C32.328,30.9935 32.334,30.4725 32.585,30.0555 L36.37,23.7475 C36.614,23.3395 37.054,23.0905 37.528,23.0905 L76.707,23.0905 C77.182,23.0905 77.621,23.3395 77.865,23.7475 L81.651,30.0555 C81.901,30.4725 81.907,30.9935 81.668,31.4165 C81.428,31.8395 80.979,32.1015 80.492,32.1015 Z" id="Fill-27" fill="#24093F" mask="url(#mask-4)"></path>
            <path d="M72.4347,165.7051 L41.8007,165.7051 C30.6737,165.7051 22.0367,156.0011 23.3247,144.9491 L30.1937,86.0291 C31.0277,78.8731 37.0897,73.4761 44.2947,73.4761 L69.9407,73.4761 C77.1457,73.4761 83.2077,78.8731 84.0417,86.0291 L90.9117,144.9491 C92.1997,156.0011 83.5617,165.7051 72.4347,165.7051" id="Fill-28" fill="#E5D6E9" mask="url(#mask-4)"></path>
            <path d="M90.9113,144.9493 L84.0423,86.0293 C83.2083,78.8733 77.1453,73.4763 69.9403,73.4763 L64.5603,73.4763 C68.7423,73.4763 72.2613,78.8733 72.7453,86.0293 L76.7313,144.9493 C77.4793,156.0013 72.4663,165.7053 66.0083,165.7053 L72.4343,165.7053 C83.5613,165.7053 92.1993,156.0013 90.9113,144.9493" id="Fill-29" fill="#7A688E" mask="url(#mask-4)"></path>
            <path d="M44.295,74.8272 C37.775,74.8272 32.29,79.7112 31.535,86.1852 L24.666,145.1052 C24.097,149.9902 25.646,154.8992 28.916,158.5732 C32.187,162.2472 36.883,164.3532 41.801,164.3532 L72.435,164.3532 C77.353,164.3532 82.049,162.2472 85.319,158.5732 C88.589,154.8992 90.139,149.9902 89.569,145.1052 L82.7,86.1852 C81.945,79.7112 76.46,74.8272 69.941,74.8272 L44.295,74.8272 Z M72.435,167.0562 L41.801,167.0562 C36.112,167.0562 30.68,164.6192 26.898,160.3702 C23.115,156.1212 21.323,150.4432 21.983,144.7932 L28.852,85.8732 C29.765,78.0352 36.404,72.1252 44.295,72.1252 L69.941,72.1252 C77.831,72.1252 84.471,78.0352 85.384,85.8732 L92.253,144.7932 C92.912,150.4432 91.12,156.1212 87.338,160.3702 C83.555,164.6192 78.123,167.0562 72.435,167.0562 Z" id="Fill-30" fill="#24093F" mask="url(#mask-4)"></path>
            <path d="M50.6192,160.7774 L50.6192,165.7054 L63.6162,165.7054 L63.6162,160.7774 C63.6162,157.1884 60.7062,154.2794 57.1172,154.2794 C53.5282,154.2794 50.6192,157.1884 50.6192,160.7774" id="Fill-31" fill="#E5D6E9" mask="url(#mask-4)"></path>
            <path d="M51.9708,164.3536 L62.2648,164.3536 L62.2648,160.7776 C62.2648,157.9386 59.9558,155.6296 57.1168,155.6296 C54.2798,155.6296 51.9708,157.9386 51.9708,160.7776 L51.9708,164.3536 Z M63.6168,167.0556 L50.6188,167.0556 C49.8728,167.0556 49.2688,166.4516 49.2688,165.7056 L49.2688,160.7776 C49.2688,156.4496 52.7888,152.9276 57.1168,152.9276 C61.4468,152.9276 64.9668,156.4496 64.9668,160.7776 L64.9668,165.7056 C64.9668,166.4516 64.3628,167.0556 63.6168,167.0556 Z" id="Fill-32" fill="#24093F" mask="url(#mask-4)"></path>
            <path d="M51.6788,23.0909 L61.4828,23.0909 L63.4398,8.1639 C63.6208,6.7839 63.1988,5.3939 62.2818,4.3489 C61.3638,3.3019 60.0388,2.7019 58.6478,2.7019 L54.5138,2.7019 C53.1218,2.7019 51.7978,3.3019 50.8798,4.3489 C49.9628,5.3939 49.5398,6.7839 49.7218,8.1639 L51.6788,23.0909 Z M62.6678,25.7929 L50.4928,25.7929 C49.8148,25.7929 49.2408,25.2899 49.1538,24.6169 L47.0418,8.5159 C46.7598,6.3649 47.4178,4.1959 48.8488,2.5659 C50.2798,0.9359 52.3438,-0.0001 54.5138,-0.0001 L58.6478,-0.0001 C60.8168,-0.0001 62.8808,0.9359 64.3118,2.5659 C65.7418,4.1959 66.4018,6.3639 66.1188,8.5159 L64.0068,24.6169 C63.9188,25.2899 63.3458,25.7929 62.6678,25.7929 Z" id="Fill-33" fill="#24093F" mask="url(#mask-4)"></path>
            <path d="M58.253,181.9121 C55.117,181.9121 52.575,184.4541 52.575,187.5901 C52.575,190.7251 55.117,193.2681 58.253,193.2681 C61.389,193.2681 63.932,190.7251 63.932,187.5901 C63.932,184.4541 61.389,181.9121 58.253,181.9121" id="Fill-34" fill="#7A688E" mask="url(#mask-4)"></path>
            <path d="M57.1173,181.2813 C54.6793,181.2813 52.7013,183.2593 52.7013,185.6973 C52.7013,188.1363 54.6793,190.1133 57.1173,190.1133 C59.5563,190.1133 61.5343,188.1363 61.5343,185.6973 C61.5343,183.2593 59.5563,181.2813 57.1173,181.2813" id="Fill-35" fill="#E5D6E9" mask="url(#mask-4)"></path>
            <path d="M57.1173,182.6328 C55.4283,182.6328 54.0533,184.0078 54.0533,185.6968 C54.0533,187.3878 55.4283,188.7628 57.1173,188.7628 C58.8073,188.7628 60.1823,187.3878 60.1823,185.6968 C60.1823,184.0078 58.8073,182.6328 57.1173,182.6328 M57.1173,191.4648 C53.9373,191.4648 51.3503,188.8778 51.3503,185.6968 C51.3503,182.5178 53.9373,179.9298 57.1173,179.9298 C60.2983,179.9298 62.8853,182.5178 62.8853,185.6968 C62.8853,188.8778 60.2983,191.4648 57.1173,191.4648" id="Fill-36" fill="#24093F" mask="url(#mask-4)"></path>
        </g>
    </g>
</svg>