<?xml version="1.0" encoding="UTF-8"?>
<svg width="12px" height="12px" viewBox="0 0 12 12" version="1.1" xmlns="http://www.w3.org/2000/svg" xmlns:xlink="http://www.w3.org/1999/xlink">
    <!-- Generator: Sketch 48.1 (47250) - http://www.bohemiancoding.com/sketch -->
    <title>Group</title>
    <desc>Created with Sketch.</desc>
    <defs></defs>
    <g id="Card-scout" stroke="none" stroke-width="1" fill="none" fill-rule="evenodd" transform="translate(-265.000000, -16.000000)">
        <g id="Card1" fill="#FFFFFF" fill-rule="nonzero">
            <g id="Level" transform="translate(265.000000, 16.000000)">
                <g id="Group">
                    <path d="M8.32275761,0.458870798 C5.27262968,-0.811026913 1.77614157,0.645620462 0.474257696,3.70831494 C-0.158085899,5.20231225 -0.158085899,6.80835936 0.474257696,8.30235666 C1.06940461,9.79635397 2.22250175,10.9542019 3.71036904,11.5518008 C4.45430268,11.8506003 5.235433,12 6.01656333,12 C6.79769365,12 7.57882397,11.8506003 8.28556093,11.5518008 C9.77342821,10.9542019 10.9265254,9.79635397 11.5216723,8.30235666 C12.8235561,5.27701212 11.3728855,1.72876851 8.32275761,0.458870798 Z M10.852132,8.04090713 C10.2941818,9.34815478 9.28987135,10.356603 7.98798747,10.879502 C6.6861036,11.4024011 5.27262968,11.4024011 3.97074581,10.879502 C2.66886194,10.319253 1.66455152,9.31080485 1.14379797,8.0035572 C0.623044425,6.69630956 0.623044425,5.27701212 1.14379797,3.96976447 C2.25969844,1.28056932 5.34702305,0.0106716061 7.98798747,1.13116959 C10.7033453,2.25166757 11.9680325,5.35171198 10.852132,8.04090713 Z" id="Shape"></path>
                    <path d="M7.18592758,3.1233946 C7.22729808,3.15789474 7.31003909,3.15789474 7.3514096,3.15789474 C7.51689161,3.15789474 7.68237363,3.08889446 7.72374413,2.95089391 L8.17881968,2.05389031 C8.26156069,1.88138962 8.17881968,1.67438879 7.97196716,1.60538851 C7.76511464,1.53638823 7.51689161,1.60538851 7.4341506,1.7778892 L6.97907506,2.6748928 C6.89633405,2.84739349 6.97907506,3.05439432 7.18592758,3.1233946 Z" id="Shape"></path>
                    <path d="M4.79982583,8.8685464 C4.5958495,8.79954613 4.35107791,8.8685464 4.26948738,9.0410471 L3.82073945,9.93805069 C3.73914892,10.1105514 3.82073945,10.3175522 4.02471578,10.3865525 C4.06551105,10.4210526 4.14710158,10.4210526 4.18789684,10.4210526 C4.35107791,10.4210526 4.51425897,10.3520524 4.55505424,10.2140518 L5.00380216,9.3170482 C5.12618795,9.14454751 5.00380216,8.93754668 4.79982583,8.8685464 Z" id="Shape"></path>
                    <path d="M8.86868205,7.19828124 C8.79932779,7.40073025 8.86868205,7.64366907 9.04206771,7.72464868 L9.94367313,8.17003651 C9.97835026,8.21052632 10.0477045,8.21052632 10.0823817,8.21052632 C10.2210902,8.21052632 10.3597987,8.12954671 10.3944758,7.9675875 C10.4638301,7.76513848 10.3944758,7.52219966 10.2210902,7.44122006 L9.31948476,6.99583222 C9.14609911,6.87436281 8.93803632,6.99583222 8.86868205,7.19828124 Z" id="Shape"></path>
                    <path d="M2.68051524,5.01157518 C2.71519237,5.05263158 2.78454663,5.05263158 2.81922376,5.05263158 C2.95793229,5.05263158 3.09664081,4.97051878 3.13131795,4.80629318 C3.20067221,4.60101118 3.13131795,4.35467278 2.95793229,4.27255999 L2.05632687,3.82093959 C1.88294121,3.73882679 1.67487842,3.82093959 1.60552416,4.02622159 C1.5361699,4.23150359 1.60552416,4.47784198 1.77890982,4.55995478 L2.68051524,5.01157518 Z" id="Shape"></path>
                    <path d="M8.25675113,3.70539556 C8.14584041,3.89076465 8.21978089,4.11320755 8.40463209,4.224429 L8.92221546,4.52101953 L6.48217958,5.44786495 C6.4082391,5.41079113 6.37126886,5.3366435 6.29732838,5.29956968 C6.11247718,5.22542205 5.92762597,5.22542205 5.74277477,5.29956968 C5.55792357,5.37371731 5.41004261,5.52201258 5.33610212,5.67030785 C5.29913188,5.74445548 5.29913188,5.81860311 5.29913188,5.85567693 L1.82392927,7.19033433 C1.63907807,7.26448196 1.52816735,7.48692486 1.60210783,7.67229394 C1.67604831,7.82058921 1.78695903,7.89473684 1.93483999,7.89473684 C1.97181023,7.89473684 2.00878047,7.89473684 2.08272095,7.85766303 L5.59489381,6.52300563 C5.63186405,6.56007944 5.66883429,6.56007944 5.70580453,6.59715326 C5.77974501,6.63422708 5.89065573,6.63422708 5.96459621,6.63422708 C6.26035814,6.63422708 6.51914982,6.48593181 6.63006054,6.18934128 C6.63006054,6.15226746 6.66703078,6.11519364 6.66703078,6.07811983 L9.03312618,5.18834823 L8.81130474,5.67030785 C8.73736426,5.85567693 8.81130474,6.07811983 8.99615594,6.15226746 C9.03312618,6.18934128 9.10706666,6.18934128 9.1440369,6.18934128 C9.29191787,6.18934128 9.40282859,6.11519364 9.47676907,5.96689838 L10.0313227,4.74346243 C10.0682929,4.6693148 10.1052632,4.63224098 10.1052632,4.52101953 C10.1052632,4.37272426 10.0313227,4.224429 9.92041196,4.18735518 L8.70039402,3.48295266 C8.58948329,3.44587885 8.36766185,3.52002648 8.25675113,3.70539556 Z" id="Shape"></path>
                </g>
            </g>
        </g>
    </g>
</svg>