<svg xmlns="http://www.w3.org/2000/svg" viewBox="0 0 26.35 26.35"><defs><style>.cls-1{fill:#fff;}</style></defs><title>user white</title><g id="Calque_2" data-name="Calque 2"><g id="Layer_1" data-name="Layer 1"><path class="cls-1" d="M13.18,0A13.18,13.18,0,1,0,26.35,13.18,13.19,13.19,0,0,0,13.18,0ZM5.43,22.65c.62-.29,1.39-.62,2.14-.94,2.09-.89,2.64-1.15,2.81-1.47S11,17.73,10.29,17a7.93,7.93,0,0,1-.83-1.93c-.3-.88-.42-1.19-.64-1.35a2.3,2.3,0,0,1-.91-1.54c0-.43.17-.49.53-.57.18,0,.62-.15.62-.59,0-.7.22-3.61.88-4.51A5.54,5.54,0,0,1,13.6,4.75c.15,0,.21,0,.14.53,0,.22-.08.63.31.79l.18,0a4.12,4.12,0,0,1,2.41,1.41,5.74,5.74,0,0,1,.72,3,1.15,1.15,0,0,0,.9,1.21l.14,0a2.22,2.22,0,0,1-.4,1.89A4.28,4.28,0,0,0,16.7,16a8.58,8.58,0,0,1-.5,1.33,3.39,3.39,0,0,0-.1,2.55c0,.12.06.22.07.29,0,.45.49.67,2.74,1.56.69.28,1.68.67,2.07.87a12.21,12.21,0,0,1-15.55,0ZM21.68,22a13.79,13.79,0,0,0-2.43-1.09,23.5,23.5,0,0,1-2.19-.95c0-.08,0-.17-.06-.28a2.54,2.54,0,0,1,0-1.88,11.21,11.21,0,0,0,.57-1.47,3.7,3.7,0,0,1,.93-1.84,2.9,2.9,0,0,0,.66-3.17,1,1,0,0,0-.65-.42c-.22-.07-.23-.07-.24-.35A6.68,6.68,0,0,0,17.42,7a4.92,4.92,0,0,0-2.74-1.74c.08-.86-.23-1.34-.93-1.46A6.38,6.38,0,0,0,9.19,6c-.82,1.11-1,3.86-1,4.76A1.39,1.39,0,0,0,7,12.19a3,3,0,0,0,1.23,2.23,9.06,9.06,0,0,1,.37,1,7.46,7.46,0,0,0,1,2.26,3.9,3.9,0,0,1,0,2.09,18.88,18.88,0,0,1-2.4,1.12c-.9.39-1.83.78-2.52,1.13a12.25,12.25,0,1,1,17,0Z"/></g></g></svg>