<?xml version="1.0" encoding="UTF-8"?>
<svg width="38px" height="38px" viewBox="0 0 38 38" version="1.1" xmlns="http://www.w3.org/2000/svg" xmlns:xlink="http://www.w3.org/1999/xlink">
    <!-- Generator: Sketch 48.1 (47250) - http://www.bohemiancoding.com/sketch -->
    <title>Group</title>
    <desc>Created with Sketch.</desc>
    <defs></defs>
    <g id="iPhone-8-Copy-21" stroke="none" stroke-width="1" fill="none" fill-rule="evenodd" transform="translate(-13.000000, -8.000000)">
        <g id="level" transform="translate(13.000000, 8.000000)" fill-rule="nonzero">
            <g id="Group">
                <circle id="Oval" fill="#755430" cx="18.9711027" cy="19.043346" r="18.956654"></circle>
                <path d="M18.9711027,35.818251 C14.4920152,35.818251 10.2730038,34.069962 7.10874525,30.9057034 C3.94448669,27.7414449 2.19619772,23.5224335 2.19619772,19.043346 C2.19619772,14.5642586 3.94448669,10.3452471 7.10874525,7.18098859 C10.2730038,4.01673004 14.4920152,2.26844106 18.9711027,2.26844106 C23.4501901,2.26844106 27.6692015,4.01673004 30.8334601,7.18098859 C33.9977186,10.3452471 35.7460076,14.5642586 35.7460076,19.043346 C35.7460076,23.5224335 33.9977186,27.7414449 30.8334601,30.9057034 C27.6692015,34.069962 23.4501901,35.818251 18.9711027,35.818251 Z" id="Shape" fill="#F6D931"></path>
                <path d="M18.9711027,36.2372624 C14.3764259,36.2372624 10.0562738,34.4456274 6.80532319,31.1946768 C3.55437262,27.9437262 1.76273764,23.6235741 1.76273764,19.0288973 C1.76273764,14.4342205 3.55437262,10.1140684 6.80532319,6.86311787 C10.0562738,3.6121673 14.3764259,1.82053232 18.9711027,1.82053232 C23.5657795,1.82053232 27.8859316,3.6121673 31.1368821,6.86311787 C34.3878327,10.1140684 36.1794677,14.4342205 36.1794677,19.0288973 C36.1794677,23.6235741 34.3878327,27.9437262 31.1368821,31.1946768 C27.8859316,34.4456274 23.5657795,36.2372624 18.9711027,36.2372624 Z M18.9711027,2.68745247 C14.6076046,2.68745247 10.5041825,4.39239544 7.4121673,7.46996198 C4.32015209,10.5619772 2.62965779,14.6653992 2.62965779,19.0288973 C2.62965779,23.3923954 4.33460076,27.4958175 7.4121673,30.5878327 C10.5041825,33.6798479 14.6076046,35.3703422 18.9711027,35.3703422 C23.3346008,35.3703422 27.4380228,33.6653992 30.530038,30.5878327 C33.6220532,27.4958175 35.3125475,23.3923954 35.3125475,19.0288973 C35.3125475,14.6653992 33.6076046,10.5619772 30.530038,7.46996198 C27.4380228,4.39239544 23.3346008,2.68745247 18.9711027,2.68745247 Z" id="Shape" fill="#FFFFFF"></path>
                <path d="M18.9711027,34.069962 C18.6532319,34.069962 18.3353612,34.0555133 18.0319392,34.0410646 L18.0608365,33.5787072 C18.3642586,33.5931559 18.6676806,33.6076046 18.9711027,33.6076046 L18.9855513,33.6076046 L18.9855513,34.069962 L18.9711027,34.069962 Z M19.9247148,34.0410646 L19.8958175,33.5787072 C20.1992395,33.5642586 20.5026616,33.5353612 20.8060837,33.4920152 L20.8638783,33.9543726 C20.5604563,33.9977186 20.2425856,34.026616 19.9247148,34.0410646 Z M17.0927757,33.9543726 C16.7749049,33.9110266 16.4714829,33.8676806 16.1536122,33.8098859 L16.2403042,33.3619772 C16.5437262,33.4197719 16.8471483,33.4631179 17.1505703,33.5064639 L17.0927757,33.9543726 Z M21.8030418,33.8098859 L21.7163498,33.3619772 C22.0197719,33.3041825 22.3087452,33.2319392 22.6121673,33.1596958 L22.7277567,33.6076046 C22.4243346,33.6798479 22.1064639,33.7520913 21.8030418,33.8098859 Z M15.2288973,33.6076046 C14.9254753,33.5353612 14.6220532,33.4486692 14.3186312,33.3475285 L14.4631179,32.9140684 C14.7520913,33.0007605 15.0410646,33.0874525 15.3444867,33.1741445 L15.2288973,33.6076046 Z M23.6380228,33.3330798 L23.4935361,32.8996198 C23.7825095,32.7984791 24.0714829,32.6973384 24.3604563,32.5961977 L24.5338403,33.0296578 C24.2304183,33.1307985 23.9269962,33.2463878 23.6380228,33.3330798 Z M13.4372624,33.0296578 C13.148289,32.9140684 12.8593156,32.7840304 12.5703422,32.6539924 L12.7726236,32.234981 C13.0471483,32.365019 13.3361217,32.4806084 13.6106464,32.5961977 L13.4372624,33.0296578 Z M25.3863118,32.6395437 L25.1840304,32.2205323 C25.4585551,32.0904943 25.7330798,31.9460076 25.9931559,31.8015209 L26.2098859,32.2060837 C25.9498099,32.365019 25.6752852,32.5095057 25.3863118,32.6395437 Z M11.7323194,32.2205323 C11.4577947,32.0760456 11.18327,31.9026616 10.9231939,31.7437262 L11.1688213,31.3536122 C11.4288973,31.5125475 11.6889734,31.6714829 11.9490494,31.8159696 L11.7323194,32.2205323 Z M27.0334601,31.7292776 L26.7878327,31.3391635 C27.0479087,31.1802281 27.2935361,31.0068441 27.5391635,30.8190114 L27.8136882,31.1946768 C27.5680608,31.3825095 27.3079848,31.5558935 27.0334601,31.7292776 Z M10.1285171,31.2091255 C9.88288973,31.0212928 9.62281369,30.8334601 9.37718631,30.6311787 L9.6661597,30.269962 C9.8973384,30.4577947 10.1429658,30.660076 10.3885932,30.8334601 L10.1285171,31.2091255 Z M28.565019,30.61673 L28.2760456,30.2555133 C28.5072243,30.0676806 28.738403,29.8509506 28.9551331,29.6486692 L29.2730038,29.9809886 C29.0418251,30.1977186 28.7961977,30.4144487 28.565019,30.61673 Z M8.68365019,29.9954373 C8.56806084,29.8942966 8.45247148,29.7787072 8.33688213,29.6631179 C8.22129278,29.5475285 8.12015209,29.4463878 8.00456274,29.3307985 L8.33688213,29.0129278 C8.43802281,29.1285171 8.55361217,29.2296578 8.65475285,29.3452471 C8.75589354,29.4463878 8.87148289,29.5619772 8.98707224,29.6631179 L8.68365019,29.9954373 Z M29.9376426,29.3163498 L29.6053232,28.9984791 C29.8076046,28.781749 30.0243346,28.5505703 30.2121673,28.3193916 L30.573384,28.608365 C30.356654,28.8539924 30.1543726,29.0851711 29.9376426,29.3163498 Z M7.38326996,28.6228137 C7.18098859,28.3771863 6.99315589,28.1315589 6.80532319,27.8714829 L7.18098859,27.5969582 C7.35437262,27.8425856 7.54220532,28.0882129 7.74448669,28.3193916 L7.38326996,28.6228137 Z M31.1368821,27.8714829 L30.7612167,27.5969582 C30.9346008,27.3513308 31.1079848,27.0912548 31.2813688,26.8456274 L31.6714829,27.0912548 C31.4980989,27.3513308 31.3247148,27.6114068 31.1368821,27.8714829 Z M6.27072243,27.1057034 C6.0973384,26.8456274 5.93840304,26.5711027 5.79391635,26.2965779 L6.19847909,26.0798479 C6.34296578,26.339924 6.50190114,26.6144487 6.6608365,26.860076 L6.27072243,27.1057034 Z M32.148289,26.2821293 L31.7437262,26.0653992 C31.8882129,25.8053232 32.0326996,25.5307985 32.1627376,25.2562738 L32.581749,25.4585551 C32.451711,25.7186312 32.3072243,26.0076046 32.148289,26.2821293 Z M5.36045627,25.4441065 C5.23041825,25.1551331 5.10038023,24.8661597 4.98479087,24.5771863 L5.41825095,24.4038023 C5.5338403,24.6927757 5.64942966,24.9673004 5.77946768,25.2418251 L5.36045627,25.4441065 Z M32.9574144,24.5627376 L32.5239544,24.3893536 C32.6395437,24.1003802 32.7406844,23.8114068 32.8273764,23.5224335 L33.2608365,23.6669202 C33.1741445,23.9703422 33.0730038,24.2737643 32.9574144,24.5627376 Z M4.66692015,23.6958175 C4.56577947,23.3923954 4.47908745,23.0889734 4.40684411,22.7855513 L4.85475285,22.669962 C4.9269962,22.9589354 5.01368821,23.2623574 5.1148289,23.5513308 L4.66692015,23.6958175 Z M33.5353612,22.7711027 L33.0874525,22.6555133 C33.1596958,22.3665399 33.2319392,22.0631179 33.2897338,21.7596958 L33.7376426,21.8463878 C33.6798479,22.1642586 33.6076046,22.4676806 33.5353612,22.7711027 Z M4.20456274,21.8608365 C4.14676806,21.5574144 4.10342205,21.2395437 4.06007605,20.921673 L4.52243346,20.8638783 C4.56577947,21.1673004 4.60912548,21.4707224 4.66692015,21.7741445 L4.20456274,21.8608365 Z M33.8821293,20.921673 L33.4197719,20.8638783 C33.4631179,20.5604563 33.4920152,20.2570342 33.5064639,19.9536122 L33.9688213,19.9825095 C33.9543726,20.2859316 33.9254753,20.6038023 33.8821293,20.921673 Z M3.97338403,19.9969582 C3.95893536,19.6790875 3.94448669,19.3612167 3.94448669,19.0577947 L4.40684411,19.0577947 C4.40684411,19.3612167 4.42129278,19.6646388 4.43574144,19.9680608 L3.97338403,19.9969582 Z M33.5353612,19.0288973 C33.5353612,18.7254753 33.5209125,18.4220532 33.5064639,18.1186312 L33.9688213,18.0897338 C33.98327,18.4076046 33.9977186,18.7254753 33.9977186,19.0288973 L33.5353612,19.0288973 Z M4.43574144,18.1330798 L3.97338403,18.1041825 C3.9878327,17.7863118 4.01673004,17.4684411 4.06007605,17.165019 L4.52243346,17.2228137 C4.47908745,17.5262357 4.45019011,17.8296578 4.43574144,18.1330798 Z M33.4197719,17.208365 C33.3764259,16.904943 33.3330798,16.6015209 33.2752852,16.2980989 L33.7231939,16.2114068 C33.7809886,16.5148289 33.8243346,16.8326996 33.8676806,17.1505703 L33.4197719,17.208365 Z M4.65247148,16.3125475 L4.20456274,16.2258555 C4.26235741,15.9224335 4.33460076,15.6045627 4.40684411,15.3011407 L4.85475285,15.41673 C4.78250951,15.7201521 4.71026616,16.0235741 4.65247148,16.3125475 Z M33.0874525,15.4022814 C33.0152091,15.113308 32.9285171,14.8098859 32.8273764,14.5209125 L33.2608365,14.3764259 C33.3619772,14.6798479 33.4486692,14.98327 33.5209125,15.286692 L33.0874525,15.4022814 Z M5.1148289,14.5498099 L4.68136882,14.4053232 C4.78250951,14.1019011 4.88365019,13.8129278 4.99923954,13.5095057 L5.43269962,13.6828897 C5.3026616,13.9574144 5.20152091,14.2608365 5.1148289,14.5498099 Z M32.5239544,13.6684411 C32.408365,13.3794677 32.2927757,13.104943 32.1627376,12.8304183 L32.581749,12.6281369 C32.7117871,12.9171103 32.8418251,13.2060837 32.9574144,13.495057 L32.5239544,13.6684411 Z M5.77946768,12.8448669 L5.36045627,12.6425856 C5.4904943,12.3536122 5.63498099,12.0790875 5.79391635,11.8045627 L6.19847909,12.0212928 C6.0539924,12.2958175 5.9095057,12.5703422 5.77946768,12.8448669 Z M31.7437262,12.0212928 C31.5992395,11.7612167 31.4403042,11.486692 31.2813688,11.2410646 L31.6714829,10.9954373 C31.8448669,11.2555133 32.0038023,11.530038 32.148289,11.8045627 L31.7437262,12.0212928 Z M6.6608365,11.2410646 L6.27072243,10.9954373 C6.44410646,10.7353612 6.61749049,10.4752852 6.80532319,10.2152091 L7.18098859,10.4897338 C6.99315589,10.7353612 6.81977186,10.9809886 6.6608365,11.2410646 Z M30.7467681,10.4752852 C30.573384,10.2296578 30.3711027,9.98403042 30.18327,9.75285171 L30.5444867,9.46387833 C30.7467681,9.7095057 30.9346008,9.95513308 31.1224335,10.2152091 L30.7467681,10.4752852 Z M7.74448669,9.76730038 L7.38326996,9.478327 C7.58555133,9.23269962 7.7878327,9.00152091 8.00456274,8.77034221 L8.33688213,9.08821293 C8.13460076,9.30494297 7.93231939,9.53612167 7.74448669,9.76730038 Z M29.5764259,9.05931559 C29.4752852,8.94372624 29.3741445,8.84258555 29.2585551,8.74144487 C29.1429658,8.62585551 29.0418251,8.52471483 28.9262357,8.40912548 L29.2441065,8.07680608 C29.3596958,8.19239544 29.4752852,8.29353612 29.5908745,8.40912548 C29.6920152,8.51026616 29.8076046,8.62585551 29.9087452,8.74144487 L29.5764259,9.05931559 Z M9.00152091,8.42357414 L8.68365019,8.09125475 C8.9148289,7.87452471 9.1460076,7.67224335 9.39163498,7.46996198 L9.68060837,7.83117871 C9.44942966,8.01901141 9.21825095,8.22129278 9.00152091,8.42357414 Z M28.2471483,7.81673004 C28.0159696,7.62889734 27.7703422,7.42661597 27.5247148,7.25323194 L27.7992395,6.87756654 C28.0448669,7.06539924 28.304943,7.25323194 28.5505703,7.45551331 L28.2471483,7.81673004 Z M10.4030418,7.25323194 L10.1285171,6.87756654 C10.3885932,6.68973384 10.6486692,6.51634981 10.9087452,6.34296578 L11.1543726,6.73307985 C10.9087452,6.90646388 10.6486692,7.07984791 10.4030418,7.25323194 Z M26.773384,6.73307985 C26.513308,6.57414449 26.2532319,6.41520913 25.9931559,6.27072243 L26.2098859,5.8661597 C26.4844106,6.01064639 26.7589354,6.18403042 27.0190114,6.34296578 L26.773384,6.73307985 Z M11.9490494,6.27072243 L11.7323194,5.8661597 C12.0068441,5.721673 12.2958175,5.56273764 12.5703422,5.43269962 L12.7726236,5.85171103 C12.4836502,5.98174905 12.2091255,6.12623574 11.9490494,6.27072243 Z M25.1695817,5.85171103 C24.895057,5.721673 24.6060837,5.60608365 24.3315589,5.4904943 L24.504943,5.05703422 C24.7939163,5.17262357 25.0828897,5.3026616 25.3718631,5.43269962 L25.1695817,5.85171103 Z M13.5961977,5.4904943 L13.4228137,5.05703422 C13.7117871,4.94144487 14.0152091,4.84030418 14.3041825,4.7391635 L14.4486692,5.17262357 C14.1741445,5.27376426 13.8851711,5.38935361 13.5961977,5.4904943 Z M23.4646388,5.18707224 C23.1756654,5.10038023 22.886692,5.01368821 22.58327,4.9269962 L22.6988593,4.47908745 C23.0022814,4.5513308 23.3057034,4.63802281 23.6091255,4.7391635 L23.4646388,5.18707224 Z M15.3444867,4.9269962 L15.2288973,4.47908745 C15.5323194,4.40684411 15.8357414,4.33460076 16.1536122,4.27680608 L16.2403042,4.72471483 C15.9368821,4.78250951 15.6334601,4.85475285 15.3444867,4.9269962 Z M21.6874525,4.72471483 C21.3840304,4.66692015 21.0806084,4.62357414 20.7771863,4.58022814 L20.834981,4.11787072 C21.1528517,4.16121673 21.4562738,4.20456274 21.7741445,4.26235741 L21.6874525,4.72471483 Z M17.1361217,4.59467681 L17.078327,4.13231939 C17.381749,4.08897338 17.6996198,4.06007605 18.0174905,4.04562738 L18.0463878,4.50798479 C17.7429658,4.52243346 17.4395437,4.5513308 17.1361217,4.59467681 Z M19.8813688,4.50798479 C19.5779468,4.49353612 19.2745247,4.47908745 18.9711027,4.47908745 L18.956654,4.47908745 L18.956654,4.01673004 L18.9711027,4.01673004 C19.2889734,4.01673004 19.5923954,4.03117871 19.9102662,4.04562738 L19.8813688,4.50798479 Z" id="Shape" fill="#FFFFFF"></path>
                <g transform="translate(12.281369, 22.973384)" fill="#DC5545" id="Shape">
                    <polygon points="0.101140684 2.73079848 0.635741445 4.81140684 5.69277567 3.30874525 2.19619772 2.26844106"></polygon>
                    <polygon points="12.6425856 1.22813688 12.3247148 0.0288973384 7.9756654 0.982509506 11.1254753 1.67604563"></polygon>
                    <polygon points="1.05475285 0.0288973384 0.736882129 1.22813688 12.7437262 4.81140684 13.278327 2.73079848"></polygon>
                </g>
                <g id="XMLID_341_" transform="translate(14.737643, 10.692015)" fill="#DC5545">
                    <path d="M8.29353612,7.77338403 C8.55361217,5.8661597 7.52775665,3.32319392 7.52775665,3.32319392 L6.44410646,5.01368821 C5.98174905,0.621292776 2.88973384,0.072243346 2.88973384,0.072243346 C4.52243346,1.90722433 2.75969582,5.59163498 2.51406844,5.3460076 C2.26844106,5.10038023 2.16730038,3.22205323 2.16730038,3.22205323 C0.91026616,3.90114068 0.390114068,5.70722433 0.1878327,6.99315589 C0.072243346,7.71558935 0.101140684,8.46692015 0.288973384,9.16045627 C0.54904943,10.1140684 1.18479087,10.7498099 1.86387833,11.1543726 C3.25095057,11.9923954 4.95589354,12.0501901 6.34296578,11.1977186 C7.28212928,10.6342205 8.17794677,9.60836502 8.29353612,7.77338403 Z" id="XMLID_1_"></path>
                </g>
            </g>
        </g>
    </g>
</svg>