<?xml version="1.0" encoding="UTF-8"?>
<svg width="122px" height="21px" viewBox="0 0 122 21" version="1.1" xmlns="http://www.w3.org/2000/svg" xmlns:xlink="http://www.w3.org/1999/xlink">
    <!-- Generator: Sketch 48.1 (47250) - http://www.bohemiancoding.com/sketch -->
    <title>Unleased</title>
    <desc>Created with Sketch.</desc>
    <defs></defs>
    <g id="iPhone-8-Copy-4" stroke="none" stroke-width="1" fill="none" fill-rule="evenodd" transform="translate(-127.000000, -416.000000)">
        <path d="M144.175,429.875 C144.175,434.15 140.6,436.275 135.55,436.275 C130.7,436.275 127,434.325 127,429.575 L127,416.2 L132.775,416.2 L132.775,429.425 C132.775,430.875 133.825,431.675 135.6,431.675 C137.3,431.675 138.375,430.825 138.375,429.45 L138.375,416.2 L144.175,416.2 L144.175,429.875 Z M160.4,426.825 C160.4,435.55 160.4,436 160.5,436 L155.225,436 C155.025,436 155.025,435.75 155.025,428.025 C155.025,426.9 154.575,426.275 153.45,426.275 C152.325,426.275 151.525,427 151.525,428.125 L151.525,436 L146.175,436 L146.175,422.25 L151.375,422.25 L151.375,424.025 C152.025,422.675 153.725,421.95 155.725,421.95 C159,421.95 160.4,423.85 160.4,426.825 Z M168.025,436 L162.625,436 C162.525,435.95 162.5,435.7 162.5,434.675 L162.5,417.65 C162.5,416.975 162.475,416.375 162.4,416.15 L167.775,416.15 C167.825,416.325 167.875,416.8 167.875,417.4 L167.875,434.825 C167.875,435.525 167.875,435.875 168.025,436 Z M184.575,431.3 C184.5,431.925 184.1,433.1 183.4,433.95 C182.275,435.375 180.325,436.225 177.175,436.225 C174.075,436.225 171.9,435.35 170.675,433.675 C169.875,432.6 169.45,431.125 169.45,429.075 C169.45,427.575 169.825,425.8 170.7,424.675 C171.95,423.025 174,421.925 177.225,421.925 C180.95,421.925 183.175,423.65 184.075,425.875 C184.575,427.05 184.775,428.9 184.65,430.5 L174.725,430.5 C174.725,430.925 174.825,431.475 175.075,431.85 C175.4,432.35 176.2,432.65 177.175,432.65 C177.975,432.65 178.6,432.475 178.95,432.15 C179.25,431.9 179.425,431.525 179.45,431.3 L184.575,431.3 Z M179.475,427.725 C179.475,427.425 179.375,426.775 179.15,426.45 C178.85,425.95 178.125,425.575 177.15,425.575 C176.225,425.575 175.5,425.9 175.125,426.425 C174.9,426.725 174.725,427.45 174.7,427.725 L179.475,427.725 Z M200.525,436 L195.35,436 C195.275,436 195.2,435.575 195.2,434.875 C194.275,435.725 192.575,436.175 190.325,436.175 C187.8,436.175 185.675,435.275 185.55,432.9 C185.55,432.675 185.525,432 185.575,431.525 C185.7,429.375 187.875,427.425 192.95,427.425 C193.85,427.425 194.425,427.45 195.05,427.525 C195.05,426.35 194.6,425.675 193.275,425.675 C191.875,425.675 191.4,426.175 191.275,427.1 L186.2,427.1 C186.2,426.475 186.375,425.55 186.725,424.85 C187.75,422.825 190.05,421.925 193.45,421.925 C197.6,421.925 199.725,423.425 200.125,425.775 C200.25,426.65 200.325,428.175 200.275,429.4 C200.25,430.225 200.25,431.725 200.25,432.9 C200.25,434.175 200.3,435.725 200.525,436 Z M195.125,430.35 C194.65,430.275 193.775,430.25 193.4,430.25 C192.025,430.25 190.975,430.825 190.975,431.725 C190.975,432.625 191.625,432.75 192.65,432.75 C194.2,432.75 195.125,431.75 195.125,430.35 Z M215.95,431.925 C215.95,434.725 213.75,436.275 209.175,436.275 C204.6,436.275 202.425,435.15 201.875,432.85 C201.75,432.325 201.75,431.9 201.725,431.45 L206.9,431.45 C206.925,431.625 206.925,431.85 207.025,432.125 C207.2,432.55 207.775,432.725 209.1,432.725 C210.4,432.725 210.8,432.475 210.8,431.95 C210.8,431.425 210.3,431.2 208.9,430.925 C208.45,430.825 206.625,430.475 205.975,430.35 C203.3,429.8 201.9,428.575 201.9,426.125 C201.9,423.575 204.15,421.9 208.5,421.9 C212.35,421.9 214.575,423.025 215.25,425 C215.4,425.45 215.5,426.45 215.5,426.7 L210.45,426.7 C210.375,425.925 210.075,425.625 208.675,425.625 C207.375,425.625 207.025,425.825 207.025,426.275 C207.025,426.725 207.275,426.85 208.5,427.1 C209,427.2 211.1,427.625 211.75,427.75 C214.525,428.325 215.95,429.475 215.95,431.925 Z M231.975,431.3 C231.9,431.925 231.5,433.1 230.8,433.95 C229.675,435.375 227.725,436.225 224.575,436.225 C221.475,436.225 219.3,435.35 218.075,433.675 C217.275,432.6 216.85,431.125 216.85,429.075 C216.85,427.575 217.225,425.8 218.1,424.675 C219.35,423.025 221.4,421.925 224.625,421.925 C228.35,421.925 230.575,423.65 231.475,425.875 C231.975,427.05 232.175,428.9 232.05,430.5 L222.125,430.5 C222.125,430.925 222.225,431.475 222.475,431.85 C222.8,432.35 223.6,432.65 224.575,432.65 C225.375,432.65 226,432.475 226.35,432.15 C226.65,431.9 226.825,431.525 226.85,431.3 L231.975,431.3 Z M226.875,427.725 C226.875,427.425 226.775,426.775 226.55,426.45 C226.25,425.95 225.525,425.575 224.55,425.575 C223.625,425.575 222.9,425.9 222.525,426.425 C222.3,426.725 222.125,427.45 222.1,427.725 L226.875,427.725 Z M239.1,422 C240.85,422 242.3,422.5 243.025,423.5 L243.025,416.075 L248.3,416.075 L248.3,433.825 C248.3,434.675 248.475,435.975 248.475,435.975 L243.65,435.975 L243.2,434.45 C242.55,435.4 241.125,436.175 238.9,436.175 C236.75,436.175 235.075,435.375 234.075,433.85 C233.3,432.7 232.925,431.15 232.925,429.15 C232.925,427.325 233.225,425.85 234,424.625 C234.975,422.975 236.875,422 239.1,422 Z M240.7,426.025 C239.675,426.025 239.1,426.325 238.725,426.875 C238.375,427.375 238.225,428.225 238.225,429.125 C238.225,430.05 238.375,430.8 238.65,431.375 C238.95,431.925 239.575,432.35 240.625,432.35 C241.65,432.35 242.2,432.025 242.575,431.45 C242.95,430.85 243.1,429.975 243.1,429.125 C243.1,428.15 242.925,427.375 242.6,426.875 C242.275,426.35 241.65,426.025 240.7,426.025 Z" id="Unleased" fill="#FFFFFF"></path>
    </g>
</svg>